M48
; DRILL file {KiCad 9.0.3-9.0.3-0~ubuntu24.10.1} date 2025-07-13T16:57:33+0200
; FORMAT={-:-/ absolute / metric / decimal}
; #@! TF.CreationDate,2025-07-13T16:57:33+02:00
; #@! TF.GenerationSoftware,Kicad,Pcbnew,9.0.3-9.0.3-0~ubuntu24.10.1
; #@! TF.FileFunction,Plated,1,2,PTH
FMAT,2
METRIC
; #@! TA.AperFunction,Plated,PTH,ViaDrill
T1C0.300
; #@! TA.AperFunction,Plated,PTH,ViaDrill
T2C0.500
; #@! TA.AperFunction,Plated,PTH,ComponentDrill
T3C0.500
; #@! TA.AperFunction,Plated,PTH,ComponentDrill
T4C0.800
; #@! TA.AperFunction,Plated,PTH,ComponentDrill
T5C0.900
; #@! TA.AperFunction,Plated,PTH,ComponentDrill
T6C0.950
; #@! TA.AperFunction,Plated,PTH,ComponentDrill
T7C1.000
; #@! TA.AperFunction,Plated,PTH,ComponentDrill
T8C3.200
%
G90
G05
T1
X72.25Y-79.425
X77.025Y-73.225
X77.875Y-130.45
X80.4Y-87.425
X82.025Y-90.125
X82.65Y-90.625
X83.275Y-91.475
X83.925Y-92.275
X85.375Y-120.625
X96.25Y-109.9
X97.5Y-102.9
X101.137Y-103.462
X102.85Y-77.2
X105.025Y-102.925
X107.1Y-108.925
X107.15Y-103.125
X107.425Y-123.05
X107.75Y-105.125
X110.175Y-122.9
X111.425Y-101.4
X113.725Y-93.9
X114.275Y-126.4
X115.1Y-102.975
X116.15Y-126.125
X116.9Y-102.05
X123.825Y-103.025
X124.975Y-106.7
T2
X96.575Y-88.825
T4
X70.175Y-90.105
X70.175Y-97.725
X70.35Y-103.92
X70.35Y-106.46
X70.35Y-109.0
X70.35Y-111.54
X70.35Y-114.08
X70.35Y-116.62
X70.35Y-119.16
X70.35Y-121.7
X70.935Y-76.155
X70.935Y-83.775
X72.975Y-101.225
X73.475Y-76.155
X73.475Y-83.775
X73.725Y-90.105
X73.725Y-97.725
X75.475Y-101.225
X76.015Y-76.155
X76.015Y-83.775
X77.97Y-103.92
X77.97Y-106.46
X77.97Y-109.0
X77.97Y-111.54
X77.97Y-114.08
X77.97Y-116.62
X77.97Y-119.16
X77.97Y-121.7
X78.275Y-96.475
X78.275Y-99.015
X78.555Y-76.155
X78.555Y-83.775
X129.725Y-123.15
X129.95Y-79.1
X130.775Y-90.105
X130.775Y-97.725
X132.225Y-123.15
X132.45Y-79.1
X134.325Y-90.105
X134.325Y-97.725
T5
X76.475Y-88.675
X78.975Y-86.175
X78.975Y-91.175
X94.05Y-91.34
X94.05Y-114.2
X96.59Y-91.34
X96.59Y-114.2
X99.13Y-91.34
X99.13Y-114.2
X101.67Y-91.34
X101.67Y-114.2
X104.21Y-91.34
X104.21Y-114.2
X106.75Y-91.34
X106.75Y-114.2
X109.29Y-91.34
X109.29Y-114.2
X111.83Y-91.34
X111.83Y-114.2
T6
X132.325Y-113.175
X132.325Y-115.675
T7
X70.81Y-87.025
X73.35Y-87.025
X79.01Y-72.27
X80.395Y-69.43
X81.78Y-72.27
X83.165Y-69.43
X84.55Y-72.27
X85.935Y-69.43
X87.32Y-72.27
X88.705Y-69.43
X90.09Y-72.27
X96.01Y-118.05
X96.01Y-120.59
X96.8Y-82.995
X98.185Y-80.155
X98.55Y-118.05
X98.55Y-120.59
X99.57Y-82.995
X100.955Y-80.155
X101.09Y-118.05
X101.09Y-120.59
X102.34Y-82.995
X103.63Y-118.05
X103.63Y-120.59
X103.725Y-80.155
X105.11Y-82.995
X106.17Y-118.05
X106.17Y-120.59
X106.495Y-80.155
X107.88Y-82.995
X108.71Y-118.05
X108.71Y-120.59
X111.25Y-118.05
X111.25Y-120.59
X114.435Y-72.27
X115.82Y-69.43
X117.205Y-72.27
X118.59Y-69.43
X119.975Y-72.27
X121.36Y-69.43
X122.745Y-72.27
X124.13Y-69.43
X125.515Y-72.27
X131.475Y-85.475
X134.015Y-85.475
T8
X72.05Y-69.43
X89.84Y-81.575
X97.05Y-69.43
X107.475Y-69.43
X114.84Y-81.575
X132.475Y-69.43
T3
G00X128.79Y-100.18
M15
G01X129.49Y-100.18
M16
G05
G00X128.79Y-108.82
M15
G01X129.49Y-108.82
M16
G05
G00X132.59Y-100.18
M15
G01X133.29Y-100.18
M16
G05
G00X132.59Y-108.82
M15
G01X133.29Y-108.82
M16
G05
M30
