%TF.GenerationSoftware,KiCad,Pcbnew,9.0.1*%
%TF.CreationDate,2025-07-07T09:59:23+02:00*%
%TF.ProjectId,pet_joymate,7065745f-6a6f-4796-9d61-74652e6b6963,rev?*%
%TF.SameCoordinates,Original*%
%TF.FileFunction,Legend,Bot*%
%TF.FilePolarity,Positive*%
%FSLAX46Y46*%
G04 Gerber Fmt 4.6, Leading zero omitted, Abs format (unit mm)*
G04 Created by KiCad (PCBNEW 9.0.1) date 2025-07-07 09:59:23*
%MOMM*%
%LPD*%
G01*
G04 APERTURE LIST*
%ADD10C,0.250000*%
%ADD11C,0.125000*%
%ADD12C,0.150000*%
%ADD13C,0.120000*%
%ADD14C,0.000000*%
%ADD15C,0.010000*%
G04 APERTURE END LIST*
D10*
X72014619Y-108282330D02*
X72014619Y-108901377D01*
X72014619Y-108901377D02*
X72395571Y-108568044D01*
X72395571Y-108568044D02*
X72395571Y-108710901D01*
X72395571Y-108710901D02*
X72443190Y-108806139D01*
X72443190Y-108806139D02*
X72490809Y-108853758D01*
X72490809Y-108853758D02*
X72586047Y-108901377D01*
X72586047Y-108901377D02*
X72824142Y-108901377D01*
X72824142Y-108901377D02*
X72919380Y-108853758D01*
X72919380Y-108853758D02*
X72967000Y-108806139D01*
X72967000Y-108806139D02*
X73014619Y-108710901D01*
X73014619Y-108710901D02*
X73014619Y-108425187D01*
X73014619Y-108425187D02*
X72967000Y-108329949D01*
X72967000Y-108329949D02*
X72919380Y-108282330D01*
X72014619Y-109234711D02*
X72014619Y-109853758D01*
X72014619Y-109853758D02*
X72395571Y-109520425D01*
X72395571Y-109520425D02*
X72395571Y-109663282D01*
X72395571Y-109663282D02*
X72443190Y-109758520D01*
X72443190Y-109758520D02*
X72490809Y-109806139D01*
X72490809Y-109806139D02*
X72586047Y-109853758D01*
X72586047Y-109853758D02*
X72824142Y-109853758D01*
X72824142Y-109853758D02*
X72919380Y-109806139D01*
X72919380Y-109806139D02*
X72967000Y-109758520D01*
X72967000Y-109758520D02*
X73014619Y-109663282D01*
X73014619Y-109663282D02*
X73014619Y-109377568D01*
X73014619Y-109377568D02*
X72967000Y-109282330D01*
X72967000Y-109282330D02*
X72919380Y-109234711D01*
X72014619Y-110472806D02*
X72014619Y-110568044D01*
X72014619Y-110568044D02*
X72062238Y-110663282D01*
X72062238Y-110663282D02*
X72109857Y-110710901D01*
X72109857Y-110710901D02*
X72205095Y-110758520D01*
X72205095Y-110758520D02*
X72395571Y-110806139D01*
X72395571Y-110806139D02*
X72633666Y-110806139D01*
X72633666Y-110806139D02*
X72824142Y-110758520D01*
X72824142Y-110758520D02*
X72919380Y-110710901D01*
X72919380Y-110710901D02*
X72967000Y-110663282D01*
X72967000Y-110663282D02*
X73014619Y-110568044D01*
X73014619Y-110568044D02*
X73014619Y-110472806D01*
X73014619Y-110472806D02*
X72967000Y-110377568D01*
X72967000Y-110377568D02*
X72919380Y-110329949D01*
X72919380Y-110329949D02*
X72824142Y-110282330D01*
X72824142Y-110282330D02*
X72633666Y-110234711D01*
X72633666Y-110234711D02*
X72395571Y-110234711D01*
X72395571Y-110234711D02*
X72205095Y-110282330D01*
X72205095Y-110282330D02*
X72109857Y-110329949D01*
X72109857Y-110329949D02*
X72062238Y-110377568D01*
X72062238Y-110377568D02*
X72014619Y-110472806D01*
D11*
X116129668Y-86971119D02*
X116129668Y-85971119D01*
X115701097Y-86971119D02*
X115701097Y-86447309D01*
X115701097Y-86447309D02*
X115748716Y-86352071D01*
X115748716Y-86352071D02*
X115843954Y-86304452D01*
X115843954Y-86304452D02*
X115986811Y-86304452D01*
X115986811Y-86304452D02*
X116082049Y-86352071D01*
X116082049Y-86352071D02*
X116129668Y-86399690D01*
X115367763Y-86304452D02*
X114986811Y-86304452D01*
X115224906Y-85971119D02*
X115224906Y-86828261D01*
X115224906Y-86828261D02*
X115177287Y-86923500D01*
X115177287Y-86923500D02*
X115082049Y-86971119D01*
X115082049Y-86971119D02*
X114986811Y-86971119D01*
X114796334Y-86304452D02*
X114415382Y-86304452D01*
X114653477Y-85971119D02*
X114653477Y-86828261D01*
X114653477Y-86828261D02*
X114605858Y-86923500D01*
X114605858Y-86923500D02*
X114510620Y-86971119D01*
X114510620Y-86971119D02*
X114415382Y-86971119D01*
X114082048Y-86304452D02*
X114082048Y-87304452D01*
X114082048Y-86352071D02*
X113986810Y-86304452D01*
X113986810Y-86304452D02*
X113796334Y-86304452D01*
X113796334Y-86304452D02*
X113701096Y-86352071D01*
X113701096Y-86352071D02*
X113653477Y-86399690D01*
X113653477Y-86399690D02*
X113605858Y-86494928D01*
X113605858Y-86494928D02*
X113605858Y-86780642D01*
X113605858Y-86780642D02*
X113653477Y-86875880D01*
X113653477Y-86875880D02*
X113701096Y-86923500D01*
X113701096Y-86923500D02*
X113796334Y-86971119D01*
X113796334Y-86971119D02*
X113986810Y-86971119D01*
X113986810Y-86971119D02*
X114082048Y-86923500D01*
X113224905Y-86923500D02*
X113129667Y-86971119D01*
X113129667Y-86971119D02*
X112939191Y-86971119D01*
X112939191Y-86971119D02*
X112843953Y-86923500D01*
X112843953Y-86923500D02*
X112796334Y-86828261D01*
X112796334Y-86828261D02*
X112796334Y-86780642D01*
X112796334Y-86780642D02*
X112843953Y-86685404D01*
X112843953Y-86685404D02*
X112939191Y-86637785D01*
X112939191Y-86637785D02*
X113082048Y-86637785D01*
X113082048Y-86637785D02*
X113177286Y-86590166D01*
X113177286Y-86590166D02*
X113224905Y-86494928D01*
X113224905Y-86494928D02*
X113224905Y-86447309D01*
X113224905Y-86447309D02*
X113177286Y-86352071D01*
X113177286Y-86352071D02*
X113082048Y-86304452D01*
X113082048Y-86304452D02*
X112939191Y-86304452D01*
X112939191Y-86304452D02*
X112843953Y-86352071D01*
X112367762Y-86875880D02*
X112320143Y-86923500D01*
X112320143Y-86923500D02*
X112367762Y-86971119D01*
X112367762Y-86971119D02*
X112415381Y-86923500D01*
X112415381Y-86923500D02*
X112367762Y-86875880D01*
X112367762Y-86875880D02*
X112367762Y-86971119D01*
X112367762Y-86352071D02*
X112320143Y-86399690D01*
X112320143Y-86399690D02*
X112367762Y-86447309D01*
X112367762Y-86447309D02*
X112415381Y-86399690D01*
X112415381Y-86399690D02*
X112367762Y-86352071D01*
X112367762Y-86352071D02*
X112367762Y-86447309D01*
X111177287Y-85923500D02*
X112034429Y-87209214D01*
X110129668Y-85923500D02*
X110986810Y-87209214D01*
X109367763Y-86304452D02*
X109367763Y-87113976D01*
X109367763Y-87113976D02*
X109415382Y-87209214D01*
X109415382Y-87209214D02*
X109463001Y-87256833D01*
X109463001Y-87256833D02*
X109558239Y-87304452D01*
X109558239Y-87304452D02*
X109701096Y-87304452D01*
X109701096Y-87304452D02*
X109796334Y-87256833D01*
X109367763Y-86923500D02*
X109463001Y-86971119D01*
X109463001Y-86971119D02*
X109653477Y-86971119D01*
X109653477Y-86971119D02*
X109748715Y-86923500D01*
X109748715Y-86923500D02*
X109796334Y-86875880D01*
X109796334Y-86875880D02*
X109843953Y-86780642D01*
X109843953Y-86780642D02*
X109843953Y-86494928D01*
X109843953Y-86494928D02*
X109796334Y-86399690D01*
X109796334Y-86399690D02*
X109748715Y-86352071D01*
X109748715Y-86352071D02*
X109653477Y-86304452D01*
X109653477Y-86304452D02*
X109463001Y-86304452D01*
X109463001Y-86304452D02*
X109367763Y-86352071D01*
X108891572Y-86971119D02*
X108891572Y-86304452D01*
X108891572Y-85971119D02*
X108939191Y-86018738D01*
X108939191Y-86018738D02*
X108891572Y-86066357D01*
X108891572Y-86066357D02*
X108843953Y-86018738D01*
X108843953Y-86018738D02*
X108891572Y-85971119D01*
X108891572Y-85971119D02*
X108891572Y-86066357D01*
X108558239Y-86304452D02*
X108177287Y-86304452D01*
X108415382Y-85971119D02*
X108415382Y-86828261D01*
X108415382Y-86828261D02*
X108367763Y-86923500D01*
X108367763Y-86923500D02*
X108272525Y-86971119D01*
X108272525Y-86971119D02*
X108177287Y-86971119D01*
X107843953Y-86971119D02*
X107843953Y-85971119D01*
X107415382Y-86971119D02*
X107415382Y-86447309D01*
X107415382Y-86447309D02*
X107463001Y-86352071D01*
X107463001Y-86352071D02*
X107558239Y-86304452D01*
X107558239Y-86304452D02*
X107701096Y-86304452D01*
X107701096Y-86304452D02*
X107796334Y-86352071D01*
X107796334Y-86352071D02*
X107843953Y-86399690D01*
X106510620Y-86304452D02*
X106510620Y-86971119D01*
X106939191Y-86304452D02*
X106939191Y-86828261D01*
X106939191Y-86828261D02*
X106891572Y-86923500D01*
X106891572Y-86923500D02*
X106796334Y-86971119D01*
X106796334Y-86971119D02*
X106653477Y-86971119D01*
X106653477Y-86971119D02*
X106558239Y-86923500D01*
X106558239Y-86923500D02*
X106510620Y-86875880D01*
X106034429Y-86971119D02*
X106034429Y-85971119D01*
X106034429Y-86352071D02*
X105939191Y-86304452D01*
X105939191Y-86304452D02*
X105748715Y-86304452D01*
X105748715Y-86304452D02*
X105653477Y-86352071D01*
X105653477Y-86352071D02*
X105605858Y-86399690D01*
X105605858Y-86399690D02*
X105558239Y-86494928D01*
X105558239Y-86494928D02*
X105558239Y-86780642D01*
X105558239Y-86780642D02*
X105605858Y-86875880D01*
X105605858Y-86875880D02*
X105653477Y-86923500D01*
X105653477Y-86923500D02*
X105748715Y-86971119D01*
X105748715Y-86971119D02*
X105939191Y-86971119D01*
X105939191Y-86971119D02*
X106034429Y-86923500D01*
X105129667Y-86875880D02*
X105082048Y-86923500D01*
X105082048Y-86923500D02*
X105129667Y-86971119D01*
X105129667Y-86971119D02*
X105177286Y-86923500D01*
X105177286Y-86923500D02*
X105129667Y-86875880D01*
X105129667Y-86875880D02*
X105129667Y-86971119D01*
X104224906Y-86923500D02*
X104320144Y-86971119D01*
X104320144Y-86971119D02*
X104510620Y-86971119D01*
X104510620Y-86971119D02*
X104605858Y-86923500D01*
X104605858Y-86923500D02*
X104653477Y-86875880D01*
X104653477Y-86875880D02*
X104701096Y-86780642D01*
X104701096Y-86780642D02*
X104701096Y-86494928D01*
X104701096Y-86494928D02*
X104653477Y-86399690D01*
X104653477Y-86399690D02*
X104605858Y-86352071D01*
X104605858Y-86352071D02*
X104510620Y-86304452D01*
X104510620Y-86304452D02*
X104320144Y-86304452D01*
X104320144Y-86304452D02*
X104224906Y-86352071D01*
X103653477Y-86971119D02*
X103748715Y-86923500D01*
X103748715Y-86923500D02*
X103796334Y-86875880D01*
X103796334Y-86875880D02*
X103843953Y-86780642D01*
X103843953Y-86780642D02*
X103843953Y-86494928D01*
X103843953Y-86494928D02*
X103796334Y-86399690D01*
X103796334Y-86399690D02*
X103748715Y-86352071D01*
X103748715Y-86352071D02*
X103653477Y-86304452D01*
X103653477Y-86304452D02*
X103510620Y-86304452D01*
X103510620Y-86304452D02*
X103415382Y-86352071D01*
X103415382Y-86352071D02*
X103367763Y-86399690D01*
X103367763Y-86399690D02*
X103320144Y-86494928D01*
X103320144Y-86494928D02*
X103320144Y-86780642D01*
X103320144Y-86780642D02*
X103367763Y-86875880D01*
X103367763Y-86875880D02*
X103415382Y-86923500D01*
X103415382Y-86923500D02*
X103510620Y-86971119D01*
X103510620Y-86971119D02*
X103653477Y-86971119D01*
X102891572Y-86971119D02*
X102891572Y-86304452D01*
X102891572Y-86399690D02*
X102843953Y-86352071D01*
X102843953Y-86352071D02*
X102748715Y-86304452D01*
X102748715Y-86304452D02*
X102605858Y-86304452D01*
X102605858Y-86304452D02*
X102510620Y-86352071D01*
X102510620Y-86352071D02*
X102463001Y-86447309D01*
X102463001Y-86447309D02*
X102463001Y-86971119D01*
X102463001Y-86447309D02*
X102415382Y-86352071D01*
X102415382Y-86352071D02*
X102320144Y-86304452D01*
X102320144Y-86304452D02*
X102177287Y-86304452D01*
X102177287Y-86304452D02*
X102082048Y-86352071D01*
X102082048Y-86352071D02*
X102034429Y-86447309D01*
X102034429Y-86447309D02*
X102034429Y-86971119D01*
X100843954Y-85923500D02*
X101701096Y-87209214D01*
X100082049Y-86923500D02*
X100177287Y-86971119D01*
X100177287Y-86971119D02*
X100367763Y-86971119D01*
X100367763Y-86971119D02*
X100463001Y-86923500D01*
X100463001Y-86923500D02*
X100510620Y-86875880D01*
X100510620Y-86875880D02*
X100558239Y-86780642D01*
X100558239Y-86780642D02*
X100558239Y-86494928D01*
X100558239Y-86494928D02*
X100510620Y-86399690D01*
X100510620Y-86399690D02*
X100463001Y-86352071D01*
X100463001Y-86352071D02*
X100367763Y-86304452D01*
X100367763Y-86304452D02*
X100177287Y-86304452D01*
X100177287Y-86304452D02*
X100082049Y-86352071D01*
X99653477Y-86971119D02*
X99653477Y-85971119D01*
X99653477Y-86352071D02*
X99558239Y-86304452D01*
X99558239Y-86304452D02*
X99367763Y-86304452D01*
X99367763Y-86304452D02*
X99272525Y-86352071D01*
X99272525Y-86352071D02*
X99224906Y-86399690D01*
X99224906Y-86399690D02*
X99177287Y-86494928D01*
X99177287Y-86494928D02*
X99177287Y-86780642D01*
X99177287Y-86780642D02*
X99224906Y-86875880D01*
X99224906Y-86875880D02*
X99272525Y-86923500D01*
X99272525Y-86923500D02*
X99367763Y-86971119D01*
X99367763Y-86971119D02*
X99558239Y-86971119D01*
X99558239Y-86971119D02*
X99653477Y-86923500D01*
X98748715Y-86971119D02*
X98748715Y-86304452D01*
X98748715Y-86399690D02*
X98701096Y-86352071D01*
X98701096Y-86352071D02*
X98605858Y-86304452D01*
X98605858Y-86304452D02*
X98463001Y-86304452D01*
X98463001Y-86304452D02*
X98367763Y-86352071D01*
X98367763Y-86352071D02*
X98320144Y-86447309D01*
X98320144Y-86447309D02*
X98320144Y-86971119D01*
X98320144Y-86447309D02*
X98272525Y-86352071D01*
X98272525Y-86352071D02*
X98177287Y-86304452D01*
X98177287Y-86304452D02*
X98034430Y-86304452D01*
X98034430Y-86304452D02*
X97939191Y-86352071D01*
X97939191Y-86352071D02*
X97891572Y-86447309D01*
X97891572Y-86447309D02*
X97891572Y-86971119D01*
X96986811Y-86304452D02*
X96986811Y-86971119D01*
X97415382Y-86304452D02*
X97415382Y-86828261D01*
X97415382Y-86828261D02*
X97367763Y-86923500D01*
X97367763Y-86923500D02*
X97272525Y-86971119D01*
X97272525Y-86971119D02*
X97129668Y-86971119D01*
X97129668Y-86971119D02*
X97034430Y-86923500D01*
X97034430Y-86923500D02*
X96986811Y-86875880D01*
X96558239Y-86923500D02*
X96463001Y-86971119D01*
X96463001Y-86971119D02*
X96272525Y-86971119D01*
X96272525Y-86971119D02*
X96177287Y-86923500D01*
X96177287Y-86923500D02*
X96129668Y-86828261D01*
X96129668Y-86828261D02*
X96129668Y-86780642D01*
X96129668Y-86780642D02*
X96177287Y-86685404D01*
X96177287Y-86685404D02*
X96272525Y-86637785D01*
X96272525Y-86637785D02*
X96415382Y-86637785D01*
X96415382Y-86637785D02*
X96510620Y-86590166D01*
X96510620Y-86590166D02*
X96558239Y-86494928D01*
X96558239Y-86494928D02*
X96558239Y-86447309D01*
X96558239Y-86447309D02*
X96510620Y-86352071D01*
X96510620Y-86352071D02*
X96415382Y-86304452D01*
X96415382Y-86304452D02*
X96272525Y-86304452D01*
X96272525Y-86304452D02*
X96177287Y-86352071D01*
X95320144Y-86923500D02*
X95415382Y-86971119D01*
X95415382Y-86971119D02*
X95605858Y-86971119D01*
X95605858Y-86971119D02*
X95701096Y-86923500D01*
X95701096Y-86923500D02*
X95748715Y-86828261D01*
X95748715Y-86828261D02*
X95748715Y-86447309D01*
X95748715Y-86447309D02*
X95701096Y-86352071D01*
X95701096Y-86352071D02*
X95605858Y-86304452D01*
X95605858Y-86304452D02*
X95415382Y-86304452D01*
X95415382Y-86304452D02*
X95320144Y-86352071D01*
X95320144Y-86352071D02*
X95272525Y-86447309D01*
X95272525Y-86447309D02*
X95272525Y-86542547D01*
X95272525Y-86542547D02*
X95748715Y-86637785D01*
X94843953Y-86971119D02*
X94843953Y-86304452D01*
X94843953Y-86494928D02*
X94796334Y-86399690D01*
X94796334Y-86399690D02*
X94748715Y-86352071D01*
X94748715Y-86352071D02*
X94653477Y-86304452D01*
X94653477Y-86304452D02*
X94558239Y-86304452D01*
X93510620Y-85923500D02*
X94367762Y-87209214D01*
X93177286Y-86304452D02*
X93177286Y-87304452D01*
X93177286Y-86352071D02*
X93082048Y-86304452D01*
X93082048Y-86304452D02*
X92891572Y-86304452D01*
X92891572Y-86304452D02*
X92796334Y-86352071D01*
X92796334Y-86352071D02*
X92748715Y-86399690D01*
X92748715Y-86399690D02*
X92701096Y-86494928D01*
X92701096Y-86494928D02*
X92701096Y-86780642D01*
X92701096Y-86780642D02*
X92748715Y-86875880D01*
X92748715Y-86875880D02*
X92796334Y-86923500D01*
X92796334Y-86923500D02*
X92891572Y-86971119D01*
X92891572Y-86971119D02*
X93082048Y-86971119D01*
X93082048Y-86971119D02*
X93177286Y-86923500D01*
X91891572Y-86923500D02*
X91986810Y-86971119D01*
X91986810Y-86971119D02*
X92177286Y-86971119D01*
X92177286Y-86971119D02*
X92272524Y-86923500D01*
X92272524Y-86923500D02*
X92320143Y-86828261D01*
X92320143Y-86828261D02*
X92320143Y-86447309D01*
X92320143Y-86447309D02*
X92272524Y-86352071D01*
X92272524Y-86352071D02*
X92177286Y-86304452D01*
X92177286Y-86304452D02*
X91986810Y-86304452D01*
X91986810Y-86304452D02*
X91891572Y-86352071D01*
X91891572Y-86352071D02*
X91843953Y-86447309D01*
X91843953Y-86447309D02*
X91843953Y-86542547D01*
X91843953Y-86542547D02*
X92320143Y-86637785D01*
X91558238Y-86304452D02*
X91177286Y-86304452D01*
X91415381Y-85971119D02*
X91415381Y-86828261D01*
X91415381Y-86828261D02*
X91367762Y-86923500D01*
X91367762Y-86923500D02*
X91272524Y-86971119D01*
X91272524Y-86971119D02*
X91177286Y-86971119D01*
X91082048Y-87066357D02*
X90320143Y-87066357D01*
X90082047Y-86304452D02*
X90082047Y-87161595D01*
X90082047Y-87161595D02*
X90129666Y-87256833D01*
X90129666Y-87256833D02*
X90224904Y-87304452D01*
X90224904Y-87304452D02*
X90272523Y-87304452D01*
X90082047Y-85971119D02*
X90129666Y-86018738D01*
X90129666Y-86018738D02*
X90082047Y-86066357D01*
X90082047Y-86066357D02*
X90034428Y-86018738D01*
X90034428Y-86018738D02*
X90082047Y-85971119D01*
X90082047Y-85971119D02*
X90082047Y-86066357D01*
X89463000Y-86971119D02*
X89558238Y-86923500D01*
X89558238Y-86923500D02*
X89605857Y-86875880D01*
X89605857Y-86875880D02*
X89653476Y-86780642D01*
X89653476Y-86780642D02*
X89653476Y-86494928D01*
X89653476Y-86494928D02*
X89605857Y-86399690D01*
X89605857Y-86399690D02*
X89558238Y-86352071D01*
X89558238Y-86352071D02*
X89463000Y-86304452D01*
X89463000Y-86304452D02*
X89320143Y-86304452D01*
X89320143Y-86304452D02*
X89224905Y-86352071D01*
X89224905Y-86352071D02*
X89177286Y-86399690D01*
X89177286Y-86399690D02*
X89129667Y-86494928D01*
X89129667Y-86494928D02*
X89129667Y-86780642D01*
X89129667Y-86780642D02*
X89177286Y-86875880D01*
X89177286Y-86875880D02*
X89224905Y-86923500D01*
X89224905Y-86923500D02*
X89320143Y-86971119D01*
X89320143Y-86971119D02*
X89463000Y-86971119D01*
X88796333Y-86304452D02*
X88558238Y-86971119D01*
X88320143Y-86304452D02*
X88558238Y-86971119D01*
X88558238Y-86971119D02*
X88653476Y-87209214D01*
X88653476Y-87209214D02*
X88701095Y-87256833D01*
X88701095Y-87256833D02*
X88796333Y-87304452D01*
D10*
X118547431Y-95044731D02*
X118547431Y-94044731D01*
X118547431Y-94044731D02*
X118166479Y-94044731D01*
X118166479Y-94044731D02*
X118071241Y-94092350D01*
X118071241Y-94092350D02*
X118023622Y-94139969D01*
X118023622Y-94139969D02*
X117976003Y-94235207D01*
X117976003Y-94235207D02*
X117976003Y-94378064D01*
X117976003Y-94378064D02*
X118023622Y-94473302D01*
X118023622Y-94473302D02*
X118071241Y-94520921D01*
X118071241Y-94520921D02*
X118166479Y-94568540D01*
X118166479Y-94568540D02*
X118547431Y-94568540D01*
X117547431Y-94520921D02*
X117214098Y-94520921D01*
X117071241Y-95044731D02*
X117547431Y-95044731D01*
X117547431Y-95044731D02*
X117547431Y-94044731D01*
X117547431Y-94044731D02*
X117071241Y-94044731D01*
X116785526Y-94044731D02*
X116214098Y-94044731D01*
X116499812Y-95044731D02*
X116499812Y-94044731D01*
X114833145Y-94044731D02*
X114833145Y-94759016D01*
X114833145Y-94759016D02*
X114880764Y-94901873D01*
X114880764Y-94901873D02*
X114976002Y-94997112D01*
X114976002Y-94997112D02*
X115118859Y-95044731D01*
X115118859Y-95044731D02*
X115214097Y-95044731D01*
X114214097Y-95044731D02*
X114309335Y-94997112D01*
X114309335Y-94997112D02*
X114356954Y-94949492D01*
X114356954Y-94949492D02*
X114404573Y-94854254D01*
X114404573Y-94854254D02*
X114404573Y-94568540D01*
X114404573Y-94568540D02*
X114356954Y-94473302D01*
X114356954Y-94473302D02*
X114309335Y-94425683D01*
X114309335Y-94425683D02*
X114214097Y-94378064D01*
X114214097Y-94378064D02*
X114071240Y-94378064D01*
X114071240Y-94378064D02*
X113976002Y-94425683D01*
X113976002Y-94425683D02*
X113928383Y-94473302D01*
X113928383Y-94473302D02*
X113880764Y-94568540D01*
X113880764Y-94568540D02*
X113880764Y-94854254D01*
X113880764Y-94854254D02*
X113928383Y-94949492D01*
X113928383Y-94949492D02*
X113976002Y-94997112D01*
X113976002Y-94997112D02*
X114071240Y-95044731D01*
X114071240Y-95044731D02*
X114214097Y-95044731D01*
X113547430Y-94378064D02*
X113309335Y-95044731D01*
X113071240Y-94378064D02*
X113309335Y-95044731D01*
X113309335Y-95044731D02*
X113404573Y-95282826D01*
X113404573Y-95282826D02*
X113452192Y-95330445D01*
X113452192Y-95330445D02*
X113547430Y-95378064D01*
X112737906Y-94997112D02*
X112642668Y-95044731D01*
X112642668Y-95044731D02*
X112452192Y-95044731D01*
X112452192Y-95044731D02*
X112356954Y-94997112D01*
X112356954Y-94997112D02*
X112309335Y-94901873D01*
X112309335Y-94901873D02*
X112309335Y-94854254D01*
X112309335Y-94854254D02*
X112356954Y-94759016D01*
X112356954Y-94759016D02*
X112452192Y-94711397D01*
X112452192Y-94711397D02*
X112595049Y-94711397D01*
X112595049Y-94711397D02*
X112690287Y-94663778D01*
X112690287Y-94663778D02*
X112737906Y-94568540D01*
X112737906Y-94568540D02*
X112737906Y-94520921D01*
X112737906Y-94520921D02*
X112690287Y-94425683D01*
X112690287Y-94425683D02*
X112595049Y-94378064D01*
X112595049Y-94378064D02*
X112452192Y-94378064D01*
X112452192Y-94378064D02*
X112356954Y-94425683D01*
X112023620Y-94378064D02*
X111642668Y-94378064D01*
X111880763Y-94044731D02*
X111880763Y-94901873D01*
X111880763Y-94901873D02*
X111833144Y-94997112D01*
X111833144Y-94997112D02*
X111737906Y-95044731D01*
X111737906Y-95044731D02*
X111642668Y-95044731D01*
X111309334Y-95044731D02*
X111309334Y-94378064D01*
X111309334Y-94044731D02*
X111356953Y-94092350D01*
X111356953Y-94092350D02*
X111309334Y-94139969D01*
X111309334Y-94139969D02*
X111261715Y-94092350D01*
X111261715Y-94092350D02*
X111309334Y-94044731D01*
X111309334Y-94044731D02*
X111309334Y-94139969D01*
X110404573Y-94997112D02*
X110499811Y-95044731D01*
X110499811Y-95044731D02*
X110690287Y-95044731D01*
X110690287Y-95044731D02*
X110785525Y-94997112D01*
X110785525Y-94997112D02*
X110833144Y-94949492D01*
X110833144Y-94949492D02*
X110880763Y-94854254D01*
X110880763Y-94854254D02*
X110880763Y-94568540D01*
X110880763Y-94568540D02*
X110833144Y-94473302D01*
X110833144Y-94473302D02*
X110785525Y-94425683D01*
X110785525Y-94425683D02*
X110690287Y-94378064D01*
X110690287Y-94378064D02*
X110499811Y-94378064D01*
X110499811Y-94378064D02*
X110404573Y-94425683D01*
X109976001Y-95044731D02*
X109976001Y-94044731D01*
X109880763Y-94663778D02*
X109595049Y-95044731D01*
X109595049Y-94378064D02*
X109976001Y-94759016D01*
X109118858Y-94997112D02*
X109118858Y-95044731D01*
X109118858Y-95044731D02*
X109166477Y-95139969D01*
X109166477Y-95139969D02*
X109214096Y-95187588D01*
X108023620Y-94044731D02*
X107785525Y-95044731D01*
X107785525Y-95044731D02*
X107595049Y-94330445D01*
X107595049Y-94330445D02*
X107404573Y-95044731D01*
X107404573Y-95044731D02*
X107166478Y-94044731D01*
X106785525Y-95044731D02*
X106785525Y-94378064D01*
X106785525Y-94044731D02*
X106833144Y-94092350D01*
X106833144Y-94092350D02*
X106785525Y-94139969D01*
X106785525Y-94139969D02*
X106737906Y-94092350D01*
X106737906Y-94092350D02*
X106785525Y-94044731D01*
X106785525Y-94044731D02*
X106785525Y-94139969D01*
X106452192Y-94378064D02*
X106071240Y-94378064D01*
X106309335Y-95044731D02*
X106309335Y-94187588D01*
X106309335Y-94187588D02*
X106261716Y-94092350D01*
X106261716Y-94092350D02*
X106166478Y-94044731D01*
X106166478Y-94044731D02*
X106071240Y-94044731D01*
X105737906Y-95044731D02*
X105737906Y-94378064D01*
X105737906Y-94044731D02*
X105785525Y-94092350D01*
X105785525Y-94092350D02*
X105737906Y-94139969D01*
X105737906Y-94139969D02*
X105690287Y-94092350D01*
X105690287Y-94092350D02*
X105737906Y-94044731D01*
X105737906Y-94044731D02*
X105737906Y-94139969D01*
X103690287Y-95044731D02*
X103737907Y-95044731D01*
X103737907Y-95044731D02*
X103833145Y-94997112D01*
X103833145Y-94997112D02*
X103976002Y-94854254D01*
X103976002Y-94854254D02*
X104214097Y-94568540D01*
X104214097Y-94568540D02*
X104309335Y-94425683D01*
X104309335Y-94425683D02*
X104356954Y-94282826D01*
X104356954Y-94282826D02*
X104356954Y-94187588D01*
X104356954Y-94187588D02*
X104309335Y-94092350D01*
X104309335Y-94092350D02*
X104214097Y-94044731D01*
X104214097Y-94044731D02*
X104166478Y-94044731D01*
X104166478Y-94044731D02*
X104071240Y-94092350D01*
X104071240Y-94092350D02*
X104023621Y-94187588D01*
X104023621Y-94187588D02*
X104023621Y-94235207D01*
X104023621Y-94235207D02*
X104071240Y-94330445D01*
X104071240Y-94330445D02*
X104118859Y-94378064D01*
X104118859Y-94378064D02*
X104404573Y-94568540D01*
X104404573Y-94568540D02*
X104452192Y-94616159D01*
X104452192Y-94616159D02*
X104499811Y-94711397D01*
X104499811Y-94711397D02*
X104499811Y-94854254D01*
X104499811Y-94854254D02*
X104452192Y-94949492D01*
X104452192Y-94949492D02*
X104404573Y-94997112D01*
X104404573Y-94997112D02*
X104309335Y-95044731D01*
X104309335Y-95044731D02*
X104166478Y-95044731D01*
X104166478Y-95044731D02*
X104071240Y-94997112D01*
X104071240Y-94997112D02*
X104023621Y-94949492D01*
X104023621Y-94949492D02*
X103880764Y-94759016D01*
X103880764Y-94759016D02*
X103833145Y-94616159D01*
X103833145Y-94616159D02*
X103833145Y-94520921D01*
X101928383Y-94949492D02*
X101976002Y-94997112D01*
X101976002Y-94997112D02*
X102118859Y-95044731D01*
X102118859Y-95044731D02*
X102214097Y-95044731D01*
X102214097Y-95044731D02*
X102356954Y-94997112D01*
X102356954Y-94997112D02*
X102452192Y-94901873D01*
X102452192Y-94901873D02*
X102499811Y-94806635D01*
X102499811Y-94806635D02*
X102547430Y-94616159D01*
X102547430Y-94616159D02*
X102547430Y-94473302D01*
X102547430Y-94473302D02*
X102499811Y-94282826D01*
X102499811Y-94282826D02*
X102452192Y-94187588D01*
X102452192Y-94187588D02*
X102356954Y-94092350D01*
X102356954Y-94092350D02*
X102214097Y-94044731D01*
X102214097Y-94044731D02*
X102118859Y-94044731D01*
X102118859Y-94044731D02*
X101976002Y-94092350D01*
X101976002Y-94092350D02*
X101928383Y-94139969D01*
X101166478Y-94520921D02*
X101023621Y-94568540D01*
X101023621Y-94568540D02*
X100976002Y-94616159D01*
X100976002Y-94616159D02*
X100928383Y-94711397D01*
X100928383Y-94711397D02*
X100928383Y-94854254D01*
X100928383Y-94854254D02*
X100976002Y-94949492D01*
X100976002Y-94949492D02*
X101023621Y-94997112D01*
X101023621Y-94997112D02*
X101118859Y-95044731D01*
X101118859Y-95044731D02*
X101499811Y-95044731D01*
X101499811Y-95044731D02*
X101499811Y-94044731D01*
X101499811Y-94044731D02*
X101166478Y-94044731D01*
X101166478Y-94044731D02*
X101071240Y-94092350D01*
X101071240Y-94092350D02*
X101023621Y-94139969D01*
X101023621Y-94139969D02*
X100976002Y-94235207D01*
X100976002Y-94235207D02*
X100976002Y-94330445D01*
X100976002Y-94330445D02*
X101023621Y-94425683D01*
X101023621Y-94425683D02*
X101071240Y-94473302D01*
X101071240Y-94473302D02*
X101166478Y-94520921D01*
X101166478Y-94520921D02*
X101499811Y-94520921D01*
X100547430Y-94139969D02*
X100499811Y-94092350D01*
X100499811Y-94092350D02*
X100404573Y-94044731D01*
X100404573Y-94044731D02*
X100166478Y-94044731D01*
X100166478Y-94044731D02*
X100071240Y-94092350D01*
X100071240Y-94092350D02*
X100023621Y-94139969D01*
X100023621Y-94139969D02*
X99976002Y-94235207D01*
X99976002Y-94235207D02*
X99976002Y-94330445D01*
X99976002Y-94330445D02*
X100023621Y-94473302D01*
X100023621Y-94473302D02*
X100595049Y-95044731D01*
X100595049Y-95044731D02*
X99976002Y-95044731D01*
X99547430Y-94663778D02*
X98785526Y-94663778D01*
X98356954Y-94997112D02*
X98214097Y-95044731D01*
X98214097Y-95044731D02*
X97976002Y-95044731D01*
X97976002Y-95044731D02*
X97880764Y-94997112D01*
X97880764Y-94997112D02*
X97833145Y-94949492D01*
X97833145Y-94949492D02*
X97785526Y-94854254D01*
X97785526Y-94854254D02*
X97785526Y-94759016D01*
X97785526Y-94759016D02*
X97833145Y-94663778D01*
X97833145Y-94663778D02*
X97880764Y-94616159D01*
X97880764Y-94616159D02*
X97976002Y-94568540D01*
X97976002Y-94568540D02*
X98166478Y-94520921D01*
X98166478Y-94520921D02*
X98261716Y-94473302D01*
X98261716Y-94473302D02*
X98309335Y-94425683D01*
X98309335Y-94425683D02*
X98356954Y-94330445D01*
X98356954Y-94330445D02*
X98356954Y-94235207D01*
X98356954Y-94235207D02*
X98309335Y-94139969D01*
X98309335Y-94139969D02*
X98261716Y-94092350D01*
X98261716Y-94092350D02*
X98166478Y-94044731D01*
X98166478Y-94044731D02*
X97928383Y-94044731D01*
X97928383Y-94044731D02*
X97785526Y-94092350D01*
X97214097Y-95044731D02*
X97309335Y-94997112D01*
X97309335Y-94997112D02*
X97356954Y-94949492D01*
X97356954Y-94949492D02*
X97404573Y-94854254D01*
X97404573Y-94854254D02*
X97404573Y-94568540D01*
X97404573Y-94568540D02*
X97356954Y-94473302D01*
X97356954Y-94473302D02*
X97309335Y-94425683D01*
X97309335Y-94425683D02*
X97214097Y-94378064D01*
X97214097Y-94378064D02*
X97071240Y-94378064D01*
X97071240Y-94378064D02*
X96976002Y-94425683D01*
X96976002Y-94425683D02*
X96928383Y-94473302D01*
X96928383Y-94473302D02*
X96880764Y-94568540D01*
X96880764Y-94568540D02*
X96880764Y-94854254D01*
X96880764Y-94854254D02*
X96928383Y-94949492D01*
X96928383Y-94949492D02*
X96976002Y-94997112D01*
X96976002Y-94997112D02*
X97071240Y-95044731D01*
X97071240Y-95044731D02*
X97214097Y-95044731D01*
X96023621Y-94378064D02*
X96023621Y-95044731D01*
X96452192Y-94378064D02*
X96452192Y-94901873D01*
X96452192Y-94901873D02*
X96404573Y-94997112D01*
X96404573Y-94997112D02*
X96309335Y-95044731D01*
X96309335Y-95044731D02*
X96166478Y-95044731D01*
X96166478Y-95044731D02*
X96071240Y-94997112D01*
X96071240Y-94997112D02*
X96023621Y-94949492D01*
X95547430Y-94378064D02*
X95547430Y-95044731D01*
X95547430Y-94473302D02*
X95499811Y-94425683D01*
X95499811Y-94425683D02*
X95404573Y-94378064D01*
X95404573Y-94378064D02*
X95261716Y-94378064D01*
X95261716Y-94378064D02*
X95166478Y-94425683D01*
X95166478Y-94425683D02*
X95118859Y-94520921D01*
X95118859Y-94520921D02*
X95118859Y-95044731D01*
X94214097Y-95044731D02*
X94214097Y-94044731D01*
X94214097Y-94997112D02*
X94309335Y-95044731D01*
X94309335Y-95044731D02*
X94499811Y-95044731D01*
X94499811Y-95044731D02*
X94595049Y-94997112D01*
X94595049Y-94997112D02*
X94642668Y-94949492D01*
X94642668Y-94949492D02*
X94690287Y-94854254D01*
X94690287Y-94854254D02*
X94690287Y-94568540D01*
X94690287Y-94568540D02*
X94642668Y-94473302D01*
X94642668Y-94473302D02*
X94595049Y-94425683D01*
X94595049Y-94425683D02*
X94499811Y-94378064D01*
X94499811Y-94378064D02*
X94309335Y-94378064D01*
X94309335Y-94378064D02*
X94214097Y-94425683D01*
X117976003Y-98264619D02*
X118309336Y-97788428D01*
X118547431Y-98264619D02*
X118547431Y-97264619D01*
X118547431Y-97264619D02*
X118166479Y-97264619D01*
X118166479Y-97264619D02*
X118071241Y-97312238D01*
X118071241Y-97312238D02*
X118023622Y-97359857D01*
X118023622Y-97359857D02*
X117976003Y-97455095D01*
X117976003Y-97455095D02*
X117976003Y-97597952D01*
X117976003Y-97597952D02*
X118023622Y-97693190D01*
X118023622Y-97693190D02*
X118071241Y-97740809D01*
X118071241Y-97740809D02*
X118166479Y-97788428D01*
X118166479Y-97788428D02*
X118547431Y-97788428D01*
X117166479Y-98217000D02*
X117261717Y-98264619D01*
X117261717Y-98264619D02*
X117452193Y-98264619D01*
X117452193Y-98264619D02*
X117547431Y-98217000D01*
X117547431Y-98217000D02*
X117595050Y-98121761D01*
X117595050Y-98121761D02*
X117595050Y-97740809D01*
X117595050Y-97740809D02*
X117547431Y-97645571D01*
X117547431Y-97645571D02*
X117452193Y-97597952D01*
X117452193Y-97597952D02*
X117261717Y-97597952D01*
X117261717Y-97597952D02*
X117166479Y-97645571D01*
X117166479Y-97645571D02*
X117118860Y-97740809D01*
X117118860Y-97740809D02*
X117118860Y-97836047D01*
X117118860Y-97836047D02*
X117595050Y-97931285D01*
X116785526Y-97597952D02*
X116547431Y-98264619D01*
X116547431Y-98264619D02*
X116309336Y-97597952D01*
X115928383Y-98264619D02*
X115928383Y-97597952D01*
X115928383Y-97264619D02*
X115976002Y-97312238D01*
X115976002Y-97312238D02*
X115928383Y-97359857D01*
X115928383Y-97359857D02*
X115880764Y-97312238D01*
X115880764Y-97312238D02*
X115928383Y-97264619D01*
X115928383Y-97264619D02*
X115928383Y-97359857D01*
X115499812Y-98217000D02*
X115404574Y-98264619D01*
X115404574Y-98264619D02*
X115214098Y-98264619D01*
X115214098Y-98264619D02*
X115118860Y-98217000D01*
X115118860Y-98217000D02*
X115071241Y-98121761D01*
X115071241Y-98121761D02*
X115071241Y-98074142D01*
X115071241Y-98074142D02*
X115118860Y-97978904D01*
X115118860Y-97978904D02*
X115214098Y-97931285D01*
X115214098Y-97931285D02*
X115356955Y-97931285D01*
X115356955Y-97931285D02*
X115452193Y-97883666D01*
X115452193Y-97883666D02*
X115499812Y-97788428D01*
X115499812Y-97788428D02*
X115499812Y-97740809D01*
X115499812Y-97740809D02*
X115452193Y-97645571D01*
X115452193Y-97645571D02*
X115356955Y-97597952D01*
X115356955Y-97597952D02*
X115214098Y-97597952D01*
X115214098Y-97597952D02*
X115118860Y-97645571D01*
X114642669Y-98264619D02*
X114642669Y-97597952D01*
X114642669Y-97264619D02*
X114690288Y-97312238D01*
X114690288Y-97312238D02*
X114642669Y-97359857D01*
X114642669Y-97359857D02*
X114595050Y-97312238D01*
X114595050Y-97312238D02*
X114642669Y-97264619D01*
X114642669Y-97264619D02*
X114642669Y-97359857D01*
X114023622Y-98264619D02*
X114118860Y-98217000D01*
X114118860Y-98217000D02*
X114166479Y-98169380D01*
X114166479Y-98169380D02*
X114214098Y-98074142D01*
X114214098Y-98074142D02*
X114214098Y-97788428D01*
X114214098Y-97788428D02*
X114166479Y-97693190D01*
X114166479Y-97693190D02*
X114118860Y-97645571D01*
X114118860Y-97645571D02*
X114023622Y-97597952D01*
X114023622Y-97597952D02*
X113880765Y-97597952D01*
X113880765Y-97597952D02*
X113785527Y-97645571D01*
X113785527Y-97645571D02*
X113737908Y-97693190D01*
X113737908Y-97693190D02*
X113690289Y-97788428D01*
X113690289Y-97788428D02*
X113690289Y-98074142D01*
X113690289Y-98074142D02*
X113737908Y-98169380D01*
X113737908Y-98169380D02*
X113785527Y-98217000D01*
X113785527Y-98217000D02*
X113880765Y-98264619D01*
X113880765Y-98264619D02*
X114023622Y-98264619D01*
X113261717Y-97597952D02*
X113261717Y-98264619D01*
X113261717Y-97693190D02*
X113214098Y-97645571D01*
X113214098Y-97645571D02*
X113118860Y-97597952D01*
X113118860Y-97597952D02*
X112976003Y-97597952D01*
X112976003Y-97597952D02*
X112880765Y-97645571D01*
X112880765Y-97645571D02*
X112833146Y-97740809D01*
X112833146Y-97740809D02*
X112833146Y-98264619D01*
X111071241Y-98264619D02*
X111642669Y-98264619D01*
X111356955Y-98264619D02*
X111356955Y-97264619D01*
X111356955Y-97264619D02*
X111452193Y-97407476D01*
X111452193Y-97407476D02*
X111547431Y-97502714D01*
X111547431Y-97502714D02*
X111642669Y-97550333D01*
X72939619Y-105076377D02*
X72939619Y-104504949D01*
X72939619Y-104790663D02*
X71939619Y-104790663D01*
X71939619Y-104790663D02*
X72082476Y-104695425D01*
X72082476Y-104695425D02*
X72177714Y-104600187D01*
X72177714Y-104600187D02*
X72225333Y-104504949D01*
X72939619Y-105504949D02*
X71939619Y-105504949D01*
X72939619Y-106076377D02*
X72368190Y-105647806D01*
X71939619Y-106076377D02*
X72511047Y-105504949D01*
X71939619Y-106981139D02*
X71939619Y-106504949D01*
X71939619Y-106504949D02*
X72415809Y-106457330D01*
X72415809Y-106457330D02*
X72368190Y-106504949D01*
X72368190Y-106504949D02*
X72320571Y-106600187D01*
X72320571Y-106600187D02*
X72320571Y-106838282D01*
X72320571Y-106838282D02*
X72368190Y-106933520D01*
X72368190Y-106933520D02*
X72415809Y-106981139D01*
X72415809Y-106981139D02*
X72511047Y-107028758D01*
X72511047Y-107028758D02*
X72749142Y-107028758D01*
X72749142Y-107028758D02*
X72844380Y-106981139D01*
X72844380Y-106981139D02*
X72892000Y-106933520D01*
X72892000Y-106933520D02*
X72939619Y-106838282D01*
X72939619Y-106838282D02*
X72939619Y-106600187D01*
X72939619Y-106600187D02*
X72892000Y-106504949D01*
X72892000Y-106504949D02*
X72844380Y-106457330D01*
X122146241Y-107864619D02*
X122622431Y-107864619D01*
X122622431Y-107864619D02*
X122670050Y-108340809D01*
X122670050Y-108340809D02*
X122622431Y-108293190D01*
X122622431Y-108293190D02*
X122527193Y-108245571D01*
X122527193Y-108245571D02*
X122289098Y-108245571D01*
X122289098Y-108245571D02*
X122193860Y-108293190D01*
X122193860Y-108293190D02*
X122146241Y-108340809D01*
X122146241Y-108340809D02*
X122098622Y-108436047D01*
X122098622Y-108436047D02*
X122098622Y-108674142D01*
X122098622Y-108674142D02*
X122146241Y-108769380D01*
X122146241Y-108769380D02*
X122193860Y-108817000D01*
X122193860Y-108817000D02*
X122289098Y-108864619D01*
X122289098Y-108864619D02*
X122527193Y-108864619D01*
X122527193Y-108864619D02*
X122622431Y-108817000D01*
X122622431Y-108817000D02*
X122670050Y-108769380D01*
X121765288Y-108864619D02*
X121241479Y-108197952D01*
X121765288Y-108197952D02*
X121241479Y-108864619D01*
X120527193Y-108340809D02*
X120384336Y-108388428D01*
X120384336Y-108388428D02*
X120336717Y-108436047D01*
X120336717Y-108436047D02*
X120289098Y-108531285D01*
X120289098Y-108531285D02*
X120289098Y-108674142D01*
X120289098Y-108674142D02*
X120336717Y-108769380D01*
X120336717Y-108769380D02*
X120384336Y-108817000D01*
X120384336Y-108817000D02*
X120479574Y-108864619D01*
X120479574Y-108864619D02*
X120860526Y-108864619D01*
X120860526Y-108864619D02*
X120860526Y-107864619D01*
X120860526Y-107864619D02*
X120527193Y-107864619D01*
X120527193Y-107864619D02*
X120431955Y-107912238D01*
X120431955Y-107912238D02*
X120384336Y-107959857D01*
X120384336Y-107959857D02*
X120336717Y-108055095D01*
X120336717Y-108055095D02*
X120336717Y-108150333D01*
X120336717Y-108150333D02*
X120384336Y-108245571D01*
X120384336Y-108245571D02*
X120431955Y-108293190D01*
X120431955Y-108293190D02*
X120527193Y-108340809D01*
X120527193Y-108340809D02*
X120860526Y-108340809D01*
X119908145Y-108817000D02*
X119765288Y-108864619D01*
X119765288Y-108864619D02*
X119527193Y-108864619D01*
X119527193Y-108864619D02*
X119431955Y-108817000D01*
X119431955Y-108817000D02*
X119384336Y-108769380D01*
X119384336Y-108769380D02*
X119336717Y-108674142D01*
X119336717Y-108674142D02*
X119336717Y-108578904D01*
X119336717Y-108578904D02*
X119384336Y-108483666D01*
X119384336Y-108483666D02*
X119431955Y-108436047D01*
X119431955Y-108436047D02*
X119527193Y-108388428D01*
X119527193Y-108388428D02*
X119717669Y-108340809D01*
X119717669Y-108340809D02*
X119812907Y-108293190D01*
X119812907Y-108293190D02*
X119860526Y-108245571D01*
X119860526Y-108245571D02*
X119908145Y-108150333D01*
X119908145Y-108150333D02*
X119908145Y-108055095D01*
X119908145Y-108055095D02*
X119860526Y-107959857D01*
X119860526Y-107959857D02*
X119812907Y-107912238D01*
X119812907Y-107912238D02*
X119717669Y-107864619D01*
X119717669Y-107864619D02*
X119479574Y-107864619D01*
X119479574Y-107864619D02*
X119336717Y-107912238D01*
X118384336Y-108864619D02*
X118955764Y-108864619D01*
X118670050Y-108864619D02*
X118670050Y-107864619D01*
X118670050Y-107864619D02*
X118765288Y-108007476D01*
X118765288Y-108007476D02*
X118860526Y-108102714D01*
X118860526Y-108102714D02*
X118955764Y-108150333D01*
X118051002Y-107864619D02*
X117431955Y-107864619D01*
X117431955Y-107864619D02*
X117765288Y-108245571D01*
X117765288Y-108245571D02*
X117622431Y-108245571D01*
X117622431Y-108245571D02*
X117527193Y-108293190D01*
X117527193Y-108293190D02*
X117479574Y-108340809D01*
X117479574Y-108340809D02*
X117431955Y-108436047D01*
X117431955Y-108436047D02*
X117431955Y-108674142D01*
X117431955Y-108674142D02*
X117479574Y-108769380D01*
X117479574Y-108769380D02*
X117527193Y-108817000D01*
X117527193Y-108817000D02*
X117622431Y-108864619D01*
X117622431Y-108864619D02*
X117908145Y-108864619D01*
X117908145Y-108864619D02*
X118003383Y-108817000D01*
X118003383Y-108817000D02*
X118051002Y-108769380D01*
X116860526Y-108293190D02*
X116955764Y-108245571D01*
X116955764Y-108245571D02*
X117003383Y-108197952D01*
X117003383Y-108197952D02*
X117051002Y-108102714D01*
X117051002Y-108102714D02*
X117051002Y-108055095D01*
X117051002Y-108055095D02*
X117003383Y-107959857D01*
X117003383Y-107959857D02*
X116955764Y-107912238D01*
X116955764Y-107912238D02*
X116860526Y-107864619D01*
X116860526Y-107864619D02*
X116670050Y-107864619D01*
X116670050Y-107864619D02*
X116574812Y-107912238D01*
X116574812Y-107912238D02*
X116527193Y-107959857D01*
X116527193Y-107959857D02*
X116479574Y-108055095D01*
X116479574Y-108055095D02*
X116479574Y-108102714D01*
X116479574Y-108102714D02*
X116527193Y-108197952D01*
X116527193Y-108197952D02*
X116574812Y-108245571D01*
X116574812Y-108245571D02*
X116670050Y-108293190D01*
X116670050Y-108293190D02*
X116860526Y-108293190D01*
X116860526Y-108293190D02*
X116955764Y-108340809D01*
X116955764Y-108340809D02*
X117003383Y-108388428D01*
X117003383Y-108388428D02*
X117051002Y-108483666D01*
X117051002Y-108483666D02*
X117051002Y-108674142D01*
X117051002Y-108674142D02*
X117003383Y-108769380D01*
X117003383Y-108769380D02*
X116955764Y-108817000D01*
X116955764Y-108817000D02*
X116860526Y-108864619D01*
X116860526Y-108864619D02*
X116670050Y-108864619D01*
X116670050Y-108864619D02*
X116574812Y-108817000D01*
X116574812Y-108817000D02*
X116527193Y-108769380D01*
X116527193Y-108769380D02*
X116479574Y-108674142D01*
X116479574Y-108674142D02*
X116479574Y-108483666D01*
X116479574Y-108483666D02*
X116527193Y-108388428D01*
X116527193Y-108388428D02*
X116574812Y-108340809D01*
X116574812Y-108340809D02*
X116670050Y-108293190D01*
X99073622Y-108864619D02*
X99645050Y-108864619D01*
X99359336Y-108864619D02*
X99359336Y-107864619D01*
X99359336Y-107864619D02*
X99454574Y-108007476D01*
X99454574Y-108007476D02*
X99549812Y-108102714D01*
X99549812Y-108102714D02*
X99645050Y-108150333D01*
X98454574Y-107864619D02*
X98359336Y-107864619D01*
X98359336Y-107864619D02*
X98264098Y-107912238D01*
X98264098Y-107912238D02*
X98216479Y-107959857D01*
X98216479Y-107959857D02*
X98168860Y-108055095D01*
X98168860Y-108055095D02*
X98121241Y-108245571D01*
X98121241Y-108245571D02*
X98121241Y-108483666D01*
X98121241Y-108483666D02*
X98168860Y-108674142D01*
X98168860Y-108674142D02*
X98216479Y-108769380D01*
X98216479Y-108769380D02*
X98264098Y-108817000D01*
X98264098Y-108817000D02*
X98359336Y-108864619D01*
X98359336Y-108864619D02*
X98454574Y-108864619D01*
X98454574Y-108864619D02*
X98549812Y-108817000D01*
X98549812Y-108817000D02*
X98597431Y-108769380D01*
X98597431Y-108769380D02*
X98645050Y-108674142D01*
X98645050Y-108674142D02*
X98692669Y-108483666D01*
X98692669Y-108483666D02*
X98692669Y-108245571D01*
X98692669Y-108245571D02*
X98645050Y-108055095D01*
X98645050Y-108055095D02*
X98597431Y-107959857D01*
X98597431Y-107959857D02*
X98549812Y-107912238D01*
X98549812Y-107912238D02*
X98454574Y-107864619D01*
X97787907Y-108864619D02*
X97264098Y-108197952D01*
X97787907Y-108197952D02*
X97264098Y-108864619D01*
X96359336Y-108864619D02*
X96930764Y-108864619D01*
X96645050Y-108864619D02*
X96645050Y-107864619D01*
X96645050Y-107864619D02*
X96740288Y-108007476D01*
X96740288Y-108007476D02*
X96835526Y-108102714D01*
X96835526Y-108102714D02*
X96930764Y-108150333D01*
X95740288Y-107864619D02*
X95645050Y-107864619D01*
X95645050Y-107864619D02*
X95549812Y-107912238D01*
X95549812Y-107912238D02*
X95502193Y-107959857D01*
X95502193Y-107959857D02*
X95454574Y-108055095D01*
X95454574Y-108055095D02*
X95406955Y-108245571D01*
X95406955Y-108245571D02*
X95406955Y-108483666D01*
X95406955Y-108483666D02*
X95454574Y-108674142D01*
X95454574Y-108674142D02*
X95502193Y-108769380D01*
X95502193Y-108769380D02*
X95549812Y-108817000D01*
X95549812Y-108817000D02*
X95645050Y-108864619D01*
X95645050Y-108864619D02*
X95740288Y-108864619D01*
X95740288Y-108864619D02*
X95835526Y-108817000D01*
X95835526Y-108817000D02*
X95883145Y-108769380D01*
X95883145Y-108769380D02*
X95930764Y-108674142D01*
X95930764Y-108674142D02*
X95978383Y-108483666D01*
X95978383Y-108483666D02*
X95978383Y-108245571D01*
X95978383Y-108245571D02*
X95930764Y-108055095D01*
X95930764Y-108055095D02*
X95883145Y-107959857D01*
X95883145Y-107959857D02*
X95835526Y-107912238D01*
X95835526Y-107912238D02*
X95740288Y-107864619D01*
X94978383Y-108864619D02*
X94978383Y-107864619D01*
X94406955Y-108864619D02*
X94835526Y-108293190D01*
X94406955Y-107864619D02*
X94978383Y-108436047D01*
X90579574Y-125143190D02*
X90674812Y-125095571D01*
X90674812Y-125095571D02*
X90722431Y-125047952D01*
X90722431Y-125047952D02*
X90770050Y-124952714D01*
X90770050Y-124952714D02*
X90770050Y-124905095D01*
X90770050Y-124905095D02*
X90722431Y-124809857D01*
X90722431Y-124809857D02*
X90674812Y-124762238D01*
X90674812Y-124762238D02*
X90579574Y-124714619D01*
X90579574Y-124714619D02*
X90389098Y-124714619D01*
X90389098Y-124714619D02*
X90293860Y-124762238D01*
X90293860Y-124762238D02*
X90246241Y-124809857D01*
X90246241Y-124809857D02*
X90198622Y-124905095D01*
X90198622Y-124905095D02*
X90198622Y-124952714D01*
X90198622Y-124952714D02*
X90246241Y-125047952D01*
X90246241Y-125047952D02*
X90293860Y-125095571D01*
X90293860Y-125095571D02*
X90389098Y-125143190D01*
X90389098Y-125143190D02*
X90579574Y-125143190D01*
X90579574Y-125143190D02*
X90674812Y-125190809D01*
X90674812Y-125190809D02*
X90722431Y-125238428D01*
X90722431Y-125238428D02*
X90770050Y-125333666D01*
X90770050Y-125333666D02*
X90770050Y-125524142D01*
X90770050Y-125524142D02*
X90722431Y-125619380D01*
X90722431Y-125619380D02*
X90674812Y-125667000D01*
X90674812Y-125667000D02*
X90579574Y-125714619D01*
X90579574Y-125714619D02*
X90389098Y-125714619D01*
X90389098Y-125714619D02*
X90293860Y-125667000D01*
X90293860Y-125667000D02*
X90246241Y-125619380D01*
X90246241Y-125619380D02*
X90198622Y-125524142D01*
X90198622Y-125524142D02*
X90198622Y-125333666D01*
X90198622Y-125333666D02*
X90246241Y-125238428D01*
X90246241Y-125238428D02*
X90293860Y-125190809D01*
X90293860Y-125190809D02*
X90389098Y-125143190D01*
X89865288Y-125714619D02*
X89341479Y-125047952D01*
X89865288Y-125047952D02*
X89341479Y-125714619D01*
X89055764Y-124714619D02*
X88436717Y-124714619D01*
X88436717Y-124714619D02*
X88770050Y-125095571D01*
X88770050Y-125095571D02*
X88627193Y-125095571D01*
X88627193Y-125095571D02*
X88531955Y-125143190D01*
X88531955Y-125143190D02*
X88484336Y-125190809D01*
X88484336Y-125190809D02*
X88436717Y-125286047D01*
X88436717Y-125286047D02*
X88436717Y-125524142D01*
X88436717Y-125524142D02*
X88484336Y-125619380D01*
X88484336Y-125619380D02*
X88531955Y-125667000D01*
X88531955Y-125667000D02*
X88627193Y-125714619D01*
X88627193Y-125714619D02*
X88912907Y-125714619D01*
X88912907Y-125714619D02*
X89008145Y-125667000D01*
X89008145Y-125667000D02*
X89055764Y-125619380D01*
X88103383Y-124714619D02*
X87484336Y-124714619D01*
X87484336Y-124714619D02*
X87817669Y-125095571D01*
X87817669Y-125095571D02*
X87674812Y-125095571D01*
X87674812Y-125095571D02*
X87579574Y-125143190D01*
X87579574Y-125143190D02*
X87531955Y-125190809D01*
X87531955Y-125190809D02*
X87484336Y-125286047D01*
X87484336Y-125286047D02*
X87484336Y-125524142D01*
X87484336Y-125524142D02*
X87531955Y-125619380D01*
X87531955Y-125619380D02*
X87579574Y-125667000D01*
X87579574Y-125667000D02*
X87674812Y-125714619D01*
X87674812Y-125714619D02*
X87960526Y-125714619D01*
X87960526Y-125714619D02*
X88055764Y-125667000D01*
X88055764Y-125667000D02*
X88103383Y-125619380D01*
X86865288Y-124714619D02*
X86770050Y-124714619D01*
X86770050Y-124714619D02*
X86674812Y-124762238D01*
X86674812Y-124762238D02*
X86627193Y-124809857D01*
X86627193Y-124809857D02*
X86579574Y-124905095D01*
X86579574Y-124905095D02*
X86531955Y-125095571D01*
X86531955Y-125095571D02*
X86531955Y-125333666D01*
X86531955Y-125333666D02*
X86579574Y-125524142D01*
X86579574Y-125524142D02*
X86627193Y-125619380D01*
X86627193Y-125619380D02*
X86674812Y-125667000D01*
X86674812Y-125667000D02*
X86770050Y-125714619D01*
X86770050Y-125714619D02*
X86865288Y-125714619D01*
X86865288Y-125714619D02*
X86960526Y-125667000D01*
X86960526Y-125667000D02*
X87008145Y-125619380D01*
X87008145Y-125619380D02*
X87055764Y-125524142D01*
X87055764Y-125524142D02*
X87103383Y-125333666D01*
X87103383Y-125333666D02*
X87103383Y-125095571D01*
X87103383Y-125095571D02*
X87055764Y-124905095D01*
X87055764Y-124905095D02*
X87008145Y-124809857D01*
X87008145Y-124809857D02*
X86960526Y-124762238D01*
X86960526Y-124762238D02*
X86865288Y-124714619D01*
D12*
X76279819Y-109295833D02*
X75803628Y-108962500D01*
X76279819Y-108724405D02*
X75279819Y-108724405D01*
X75279819Y-108724405D02*
X75279819Y-109105357D01*
X75279819Y-109105357D02*
X75327438Y-109200595D01*
X75327438Y-109200595D02*
X75375057Y-109248214D01*
X75375057Y-109248214D02*
X75470295Y-109295833D01*
X75470295Y-109295833D02*
X75613152Y-109295833D01*
X75613152Y-109295833D02*
X75708390Y-109248214D01*
X75708390Y-109248214D02*
X75756009Y-109200595D01*
X75756009Y-109200595D02*
X75803628Y-109105357D01*
X75803628Y-109105357D02*
X75803628Y-108724405D01*
X76279819Y-110248214D02*
X76279819Y-109676786D01*
X76279819Y-109962500D02*
X75279819Y-109962500D01*
X75279819Y-109962500D02*
X75422676Y-109867262D01*
X75422676Y-109867262D02*
X75517914Y-109772024D01*
X75517914Y-109772024D02*
X75565533Y-109676786D01*
X76259819Y-105294642D02*
X75783628Y-104961309D01*
X76259819Y-104723214D02*
X75259819Y-104723214D01*
X75259819Y-104723214D02*
X75259819Y-105104166D01*
X75259819Y-105104166D02*
X75307438Y-105199404D01*
X75307438Y-105199404D02*
X75355057Y-105247023D01*
X75355057Y-105247023D02*
X75450295Y-105294642D01*
X75450295Y-105294642D02*
X75593152Y-105294642D01*
X75593152Y-105294642D02*
X75688390Y-105247023D01*
X75688390Y-105247023D02*
X75736009Y-105199404D01*
X75736009Y-105199404D02*
X75783628Y-105104166D01*
X75783628Y-105104166D02*
X75783628Y-104723214D01*
X76259819Y-106247023D02*
X76259819Y-105675595D01*
X76259819Y-105961309D02*
X75259819Y-105961309D01*
X75259819Y-105961309D02*
X75402676Y-105866071D01*
X75402676Y-105866071D02*
X75497914Y-105770833D01*
X75497914Y-105770833D02*
X75545533Y-105675595D01*
X75259819Y-107151785D02*
X75259819Y-106675595D01*
X75259819Y-106675595D02*
X75736009Y-106627976D01*
X75736009Y-106627976D02*
X75688390Y-106675595D01*
X75688390Y-106675595D02*
X75640771Y-106770833D01*
X75640771Y-106770833D02*
X75640771Y-107008928D01*
X75640771Y-107008928D02*
X75688390Y-107104166D01*
X75688390Y-107104166D02*
X75736009Y-107151785D01*
X75736009Y-107151785D02*
X75831247Y-107199404D01*
X75831247Y-107199404D02*
X76069342Y-107199404D01*
X76069342Y-107199404D02*
X76164580Y-107151785D01*
X76164580Y-107151785D02*
X76212200Y-107104166D01*
X76212200Y-107104166D02*
X76259819Y-107008928D01*
X76259819Y-107008928D02*
X76259819Y-106770833D01*
X76259819Y-106770833D02*
X76212200Y-106675595D01*
X76212200Y-106675595D02*
X76164580Y-106627976D01*
D13*
%TO.C,Q7*%
X100635000Y-104117500D02*
X100635000Y-103467500D01*
X100635000Y-104117500D02*
X100635000Y-104767500D01*
X103755000Y-104117500D02*
X103755000Y-103467500D01*
X103755000Y-104117500D02*
X103755000Y-104767500D01*
X104035000Y-105520000D02*
X103705000Y-105280000D01*
X104035000Y-105040000D01*
X104035000Y-105520000D01*
G36*
X104035000Y-105520000D02*
G01*
X103705000Y-105280000D01*
X104035000Y-105040000D01*
X104035000Y-105520000D01*
G37*
%TO.C,R13*%
X96110436Y-100352500D02*
X96564564Y-100352500D01*
X96110436Y-101822500D02*
X96564564Y-101822500D01*
%TO.C,R9*%
X120064564Y-100402500D02*
X119610436Y-100402500D01*
X120064564Y-101872500D02*
X119610436Y-101872500D01*
%TO.C,R11*%
X108334564Y-100312500D02*
X107880436Y-100312500D01*
X108334564Y-101782500D02*
X107880436Y-101782500D01*
%TO.C,Q5*%
X94765000Y-104125000D02*
X94765000Y-103475000D01*
X94765000Y-104125000D02*
X94765000Y-104775000D01*
X97885000Y-104125000D02*
X97885000Y-103475000D01*
X97885000Y-104125000D02*
X97885000Y-104775000D01*
X98165000Y-105527500D02*
X97835000Y-105287500D01*
X98165000Y-105047500D01*
X98165000Y-105527500D01*
G36*
X98165000Y-105527500D02*
G01*
X97835000Y-105287500D01*
X98165000Y-105047500D01*
X98165000Y-105527500D01*
G37*
%TO.C,R14*%
X98520000Y-106052064D02*
X98520000Y-105597936D01*
X99990000Y-106052064D02*
X99990000Y-105597936D01*
%TO.C,Q6*%
X112365000Y-104200000D02*
X112365000Y-103550000D01*
X112365000Y-104200000D02*
X112365000Y-104850000D01*
X115485000Y-104200000D02*
X115485000Y-103550000D01*
X115485000Y-104200000D02*
X115485000Y-104850000D01*
X115765000Y-105602500D02*
X115435000Y-105362500D01*
X115765000Y-105122500D01*
X115765000Y-105602500D01*
G36*
X115765000Y-105602500D02*
G01*
X115435000Y-105362500D01*
X115765000Y-105122500D01*
X115765000Y-105602500D01*
G37*
%TO.C,R12*%
X110200000Y-106022064D02*
X110200000Y-105567936D01*
X111670000Y-106022064D02*
X111670000Y-105567936D01*
%TO.C,R8*%
X92115000Y-125235436D02*
X92115000Y-125689564D01*
X93585000Y-125235436D02*
X93585000Y-125689564D01*
%TO.C,J5*%
X86855000Y-76325000D02*
X86855000Y-86825000D01*
X87915000Y-87885000D02*
X116765000Y-87885000D01*
X94473530Y-83636744D02*
X95302267Y-78936744D01*
X96108311Y-85585000D02*
X108571689Y-85585000D01*
X96937048Y-77565000D02*
X107742952Y-77565000D01*
X107630000Y-88779338D02*
X108130000Y-88779338D01*
X107880000Y-88346325D02*
X107630000Y-88779338D01*
X108130000Y-88779338D02*
X107880000Y-88346325D01*
X110206470Y-83636744D02*
X109377733Y-78936744D01*
X116765000Y-75265000D02*
X87915000Y-75265000D01*
X117825000Y-86825000D02*
X117825000Y-76325000D01*
X86855000Y-76325000D02*
G75*
G02*
X87915000Y-75265000I1060001J-1D01*
G01*
X87915000Y-87885000D02*
G75*
G02*
X86855000Y-86825000I1J1060001D01*
G01*
X95302267Y-78936744D02*
G75*
G02*
X96937048Y-77565000I1634780J-288255D01*
G01*
X96108311Y-85585000D02*
G75*
G02*
X94473530Y-83636744I0J1660000D01*
G01*
X107742952Y-77565000D02*
G75*
G02*
X109377733Y-78936744I1J-1659999D01*
G01*
X110206470Y-83636744D02*
G75*
G02*
X108571689Y-85584999I-1634780J-288256D01*
G01*
X116765000Y-75265000D02*
G75*
G02*
X117825000Y-76325000I0J-1060000D01*
G01*
X117825000Y-86825000D02*
G75*
G02*
X116765000Y-87885000I-1060000J0D01*
G01*
%TO.C,R21*%
X102462064Y-100352500D02*
X102007936Y-100352500D01*
X102462064Y-101822500D02*
X102007936Y-101822500D01*
%TO.C,R5*%
X100615000Y-125160436D02*
X100615000Y-125614564D01*
X102085000Y-125160436D02*
X102085000Y-125614564D01*
%TO.C,R10*%
X121990000Y-105814564D02*
X121990000Y-105360436D01*
X123460000Y-105814564D02*
X123460000Y-105360436D01*
%TO.C,R4*%
X103565000Y-125160436D02*
X103565000Y-125614564D01*
X105035000Y-125160436D02*
X105035000Y-125614564D01*
%TO.C,R20*%
X116065000Y-105927064D02*
X116065000Y-105472936D01*
X117535000Y-105927064D02*
X117535000Y-105472936D01*
%TO.C,R1*%
X73440000Y-109689564D02*
X73440000Y-109235436D01*
X74910000Y-109689564D02*
X74910000Y-109235436D01*
%TO.C,R3*%
X106515000Y-125160436D02*
X106515000Y-125614564D01*
X107985000Y-125160436D02*
X107985000Y-125614564D01*
%TO.C,R2*%
X109465000Y-125160436D02*
X109465000Y-125614564D01*
X110935000Y-125160436D02*
X110935000Y-125614564D01*
%TO.C,R22*%
X104450000Y-106062064D02*
X104450000Y-105607936D01*
X105920000Y-106062064D02*
X105920000Y-105607936D01*
D14*
%TO.C,G\u002A\u002A\u002A*%
G36*
X127841667Y-87491666D02*
G01*
X127841667Y-89225000D01*
X127841667Y-90958333D01*
X127416667Y-90967662D01*
X126991667Y-90976991D01*
X126991667Y-89809329D01*
X126991667Y-88641666D01*
X126575000Y-88641666D01*
X126158334Y-88641666D01*
X126158334Y-89808333D01*
X126158334Y-90975000D01*
X125741667Y-90975000D01*
X125325000Y-90975000D01*
X125325000Y-91558333D01*
X125325000Y-92141666D01*
X124491667Y-92141666D01*
X124305829Y-92141036D01*
X124096438Y-92138658D01*
X123917956Y-92134764D01*
X123779322Y-92129623D01*
X123689475Y-92123501D01*
X123657354Y-92116666D01*
X123656912Y-92095065D01*
X123655651Y-92015383D01*
X123653803Y-91888815D01*
X123651536Y-91727023D01*
X123649021Y-91541666D01*
X123641667Y-90991666D01*
X124484119Y-90982759D01*
X125326570Y-90973851D01*
X125317452Y-90399425D01*
X125308334Y-89825000D01*
X123216667Y-89816416D01*
X121125000Y-89807832D01*
X121125000Y-90390843D01*
X121125000Y-90973855D01*
X121966374Y-90982760D01*
X122807748Y-90991666D01*
X122819700Y-91484480D01*
X122821192Y-91555504D01*
X122822889Y-91731324D01*
X122821616Y-91883472D01*
X122817589Y-91997630D01*
X122811024Y-92059480D01*
X122790397Y-92141666D01*
X121958486Y-92141666D01*
X121126575Y-92141666D01*
X121117454Y-91566666D01*
X121108334Y-90991666D01*
X120700000Y-90982307D01*
X120291667Y-90972948D01*
X120291667Y-89807307D01*
X120291667Y-88641666D01*
X119875432Y-88641666D01*
X119459198Y-88641666D01*
X119450432Y-89800000D01*
X119441667Y-90958333D01*
X119025000Y-90958333D01*
X118608334Y-90958333D01*
X118599704Y-89217664D01*
X118591074Y-87476996D01*
X119016370Y-87467664D01*
X119441667Y-87458333D01*
X119450788Y-86883333D01*
X119459908Y-86308333D01*
X119875788Y-86308333D01*
X120291667Y-86308333D01*
X120291667Y-86306281D01*
X121125000Y-86306281D01*
X121125000Y-86890640D01*
X121125000Y-87475000D01*
X121542454Y-87475000D01*
X121959908Y-87475000D01*
X121950788Y-86900000D01*
X121941667Y-86325000D01*
X121533334Y-86315640D01*
X121125000Y-86306281D01*
X124491667Y-86306281D01*
X124491667Y-86890640D01*
X124491667Y-87475000D01*
X124909121Y-87475000D01*
X125326575Y-87475000D01*
X125317454Y-86900000D01*
X125308334Y-86325000D01*
X124900000Y-86315640D01*
X124491667Y-86306281D01*
X121125000Y-86306281D01*
X120291667Y-86306281D01*
X120291667Y-85725000D01*
X120291667Y-85141666D01*
X120708334Y-85141666D01*
X121125000Y-85141666D01*
X121125000Y-84558333D01*
X121125000Y-83975000D01*
X121541667Y-83975000D01*
X121958334Y-83975000D01*
X121958334Y-84558333D01*
X121958334Y-85141666D01*
X123225000Y-85141666D01*
X124491667Y-85141666D01*
X124491667Y-84558333D01*
X124491667Y-83975000D01*
X124908334Y-83975000D01*
X125325000Y-83975000D01*
X125325000Y-83391666D01*
X125325000Y-82808333D01*
X125741667Y-82808333D01*
X126158334Y-82808333D01*
X126158334Y-83390640D01*
X126158334Y-83972948D01*
X125750000Y-83982307D01*
X125341667Y-83991666D01*
X125332547Y-84566666D01*
X125323426Y-85141666D01*
X125740880Y-85141666D01*
X126158334Y-85141666D01*
X126158334Y-85725000D01*
X126158334Y-86308333D01*
X126574213Y-86308333D01*
X126990093Y-86308333D01*
X126999213Y-86883333D01*
X127008334Y-87458333D01*
X127425000Y-87475000D01*
X127841667Y-87491666D01*
G37*
G36*
X121125000Y-83391666D02*
G01*
X121125000Y-83975000D01*
X120708334Y-83975000D01*
X120291667Y-83975000D01*
X120291667Y-83391666D01*
X120291667Y-82808333D01*
X120708334Y-82808333D01*
X121125000Y-82808333D01*
X121125000Y-83391666D01*
G37*
D15*
X119354297Y-116094442D02*
X119406977Y-116254032D01*
X119395082Y-116386882D01*
X119350532Y-116508032D01*
X119315586Y-116537052D01*
X119176980Y-116560598D01*
X119065173Y-116475985D01*
X119018980Y-116330829D01*
X119077216Y-116172745D01*
X119227578Y-116064873D01*
X119354297Y-116094442D01*
G36*
X119354297Y-116094442D02*
G01*
X119406977Y-116254032D01*
X119395082Y-116386882D01*
X119350532Y-116508032D01*
X119315586Y-116537052D01*
X119176980Y-116560598D01*
X119065173Y-116475985D01*
X119018980Y-116330829D01*
X119077216Y-116172745D01*
X119227578Y-116064873D01*
X119354297Y-116094442D01*
G37*
X123188537Y-117346418D02*
X123211420Y-117369958D01*
X123282516Y-117493880D01*
X123220503Y-117618561D01*
X123143195Y-117690417D01*
X123004002Y-117749810D01*
X122968431Y-117745718D01*
X122861633Y-117653571D01*
X122839731Y-117493235D01*
X122917532Y-117335635D01*
X122967801Y-117288380D01*
X123067569Y-117252693D01*
X123188537Y-117346418D01*
G36*
X123188537Y-117346418D02*
G01*
X123211420Y-117369958D01*
X123282516Y-117493880D01*
X123220503Y-117618561D01*
X123143195Y-117690417D01*
X123004002Y-117749810D01*
X122968431Y-117745718D01*
X122861633Y-117653571D01*
X122839731Y-117493235D01*
X122917532Y-117335635D01*
X122967801Y-117288380D01*
X123067569Y-117252693D01*
X123188537Y-117346418D01*
G37*
X123330835Y-118998643D02*
X123323870Y-119132456D01*
X123294585Y-119552108D01*
X123258264Y-119835701D01*
X123210495Y-120009670D01*
X123146864Y-120100451D01*
X123053347Y-120163174D01*
X122960697Y-120174934D01*
X122895935Y-120090375D01*
X122853040Y-119891253D01*
X122825989Y-119559326D01*
X122808759Y-119076351D01*
X122781542Y-118003810D01*
X123380100Y-118003810D01*
X123330835Y-118998643D01*
G36*
X123330835Y-118998643D02*
G01*
X123323870Y-119132456D01*
X123294585Y-119552108D01*
X123258264Y-119835701D01*
X123210495Y-120009670D01*
X123146864Y-120100451D01*
X123053347Y-120163174D01*
X122960697Y-120174934D01*
X122895935Y-120090375D01*
X122853040Y-119891253D01*
X122825989Y-119559326D01*
X122808759Y-119076351D01*
X122781542Y-118003810D01*
X123380100Y-118003810D01*
X123330835Y-118998643D01*
G37*
X119542045Y-117891945D02*
X119516921Y-118265214D01*
X119488487Y-118602217D01*
X119461665Y-118842665D01*
X119439956Y-118950278D01*
X119354722Y-119000762D01*
X119223088Y-119023564D01*
X119147513Y-118998643D01*
X119147371Y-118997842D01*
X119141692Y-118901233D01*
X119130882Y-118670618D01*
X119116437Y-118339232D01*
X119099854Y-117940310D01*
X119057658Y-116903143D01*
X119601161Y-116903143D01*
X119542045Y-117891945D01*
G36*
X119542045Y-117891945D02*
G01*
X119516921Y-118265214D01*
X119488487Y-118602217D01*
X119461665Y-118842665D01*
X119439956Y-118950278D01*
X119354722Y-119000762D01*
X119223088Y-119023564D01*
X119147513Y-118998643D01*
X119147371Y-118997842D01*
X119141692Y-118901233D01*
X119130882Y-118670618D01*
X119116437Y-118339232D01*
X119099854Y-117940310D01*
X119057658Y-116903143D01*
X119601161Y-116903143D01*
X119542045Y-117891945D01*
G37*
X119363136Y-113254977D02*
X119561090Y-113409651D01*
X119738371Y-113620271D01*
X119865995Y-113862541D01*
X119914977Y-114112164D01*
X119903927Y-114171224D01*
X119799234Y-114358175D01*
X119618643Y-114555280D01*
X119529761Y-114638351D01*
X119381068Y-114803896D01*
X119322310Y-114912376D01*
X119340444Y-114971531D01*
X119435624Y-115144271D01*
X119585064Y-115364407D01*
X119608643Y-115396688D01*
X119747546Y-115609757D01*
X119787984Y-115745545D01*
X119744030Y-115846753D01*
X119691077Y-115902498D01*
X119548465Y-115962324D01*
X119381003Y-115888355D01*
X119161748Y-115672530D01*
X118979390Y-115421353D01*
X118875370Y-115100035D01*
X118938058Y-114796456D01*
X119167491Y-114503528D01*
X119172831Y-114498571D01*
X119331303Y-114332182D01*
X119377546Y-114205767D01*
X119334170Y-114059028D01*
X119250055Y-113923712D01*
X119152696Y-113855143D01*
X119082475Y-113815724D01*
X118995036Y-113666215D01*
X118943026Y-113472060D01*
X118952744Y-113305545D01*
X119021145Y-113210653D01*
X119173493Y-113180545D01*
X119363136Y-113254977D01*
G36*
X119363136Y-113254977D02*
G01*
X119561090Y-113409651D01*
X119738371Y-113620271D01*
X119865995Y-113862541D01*
X119914977Y-114112164D01*
X119903927Y-114171224D01*
X119799234Y-114358175D01*
X119618643Y-114555280D01*
X119529761Y-114638351D01*
X119381068Y-114803896D01*
X119322310Y-114912376D01*
X119340444Y-114971531D01*
X119435624Y-115144271D01*
X119585064Y-115364407D01*
X119608643Y-115396688D01*
X119747546Y-115609757D01*
X119787984Y-115745545D01*
X119744030Y-115846753D01*
X119691077Y-115902498D01*
X119548465Y-115962324D01*
X119381003Y-115888355D01*
X119161748Y-115672530D01*
X118979390Y-115421353D01*
X118875370Y-115100035D01*
X118938058Y-114796456D01*
X119167491Y-114503528D01*
X119172831Y-114498571D01*
X119331303Y-114332182D01*
X119377546Y-114205767D01*
X119334170Y-114059028D01*
X119250055Y-113923712D01*
X119152696Y-113855143D01*
X119082475Y-113815724D01*
X118995036Y-113666215D01*
X118943026Y-113472060D01*
X118952744Y-113305545D01*
X119021145Y-113210653D01*
X119173493Y-113180545D01*
X119363136Y-113254977D01*
G37*
X120153453Y-116787817D02*
X120333289Y-116911962D01*
X120578271Y-117140767D01*
X120773647Y-117441449D01*
X120846310Y-117732001D01*
X120833279Y-117790677D01*
X120727448Y-117968030D01*
X120549977Y-118161592D01*
X120459923Y-118248757D01*
X120312042Y-118422681D01*
X120253643Y-118541114D01*
X120266644Y-118593618D01*
X120355598Y-118766581D01*
X120501065Y-118982812D01*
X120599017Y-119123186D01*
X120684411Y-119305964D01*
X120660031Y-119421228D01*
X120643073Y-119440124D01*
X120467555Y-119519070D01*
X120258469Y-119456210D01*
X120041139Y-119265745D01*
X119840890Y-118961876D01*
X119784852Y-118836581D01*
X119757746Y-118638429D01*
X119839128Y-118437732D01*
X120041977Y-118184292D01*
X120150663Y-118058274D01*
X120285596Y-117879360D01*
X120338310Y-117774710D01*
X120333043Y-117753502D01*
X120245485Y-117629074D01*
X120084310Y-117466819D01*
X120040095Y-117426519D01*
X119873286Y-117229878D01*
X119844767Y-117057615D01*
X119944037Y-116864644D01*
X119974714Y-116823946D01*
X120052308Y-116760713D01*
X120153453Y-116787817D01*
G36*
X120153453Y-116787817D02*
G01*
X120333289Y-116911962D01*
X120578271Y-117140767D01*
X120773647Y-117441449D01*
X120846310Y-117732001D01*
X120833279Y-117790677D01*
X120727448Y-117968030D01*
X120549977Y-118161592D01*
X120459923Y-118248757D01*
X120312042Y-118422681D01*
X120253643Y-118541114D01*
X120266644Y-118593618D01*
X120355598Y-118766581D01*
X120501065Y-118982812D01*
X120599017Y-119123186D01*
X120684411Y-119305964D01*
X120660031Y-119421228D01*
X120643073Y-119440124D01*
X120467555Y-119519070D01*
X120258469Y-119456210D01*
X120041139Y-119265745D01*
X119840890Y-118961876D01*
X119784852Y-118836581D01*
X119757746Y-118638429D01*
X119839128Y-118437732D01*
X120041977Y-118184292D01*
X120150663Y-118058274D01*
X120285596Y-117879360D01*
X120338310Y-117774710D01*
X120333043Y-117753502D01*
X120245485Y-117629074D01*
X120084310Y-117466819D01*
X120040095Y-117426519D01*
X119873286Y-117229878D01*
X119844767Y-117057615D01*
X119944037Y-116864644D01*
X119974714Y-116823946D01*
X120052308Y-116760713D01*
X120153453Y-116787817D01*
G37*
X121539206Y-115884729D02*
X121469245Y-116046057D01*
X121327593Y-116191521D01*
X121134744Y-116328098D01*
X120891565Y-116387398D01*
X120651127Y-116293172D01*
X120387241Y-116041237D01*
X120229112Y-115829753D01*
X120101523Y-115520961D01*
X120101644Y-115182367D01*
X120110173Y-115153283D01*
X120460348Y-115153283D01*
X120510216Y-115500949D01*
X120725709Y-115827714D01*
X120758545Y-115862602D01*
X120900404Y-116000570D01*
X120979394Y-116056477D01*
X121021969Y-116040266D01*
X121083701Y-115906965D01*
X121105017Y-115676268D01*
X121089741Y-115393222D01*
X121041695Y-115102874D01*
X120964704Y-114850272D01*
X120862591Y-114680461D01*
X120681972Y-114499842D01*
X120547674Y-114821263D01*
X120460348Y-115153283D01*
X120110173Y-115153283D01*
X120223441Y-114767023D01*
X120272704Y-114647213D01*
X120436360Y-114370421D01*
X120632520Y-114232746D01*
X120888643Y-114211247D01*
X121020572Y-114252691D01*
X121227485Y-114437099D01*
X121398388Y-114734867D01*
X121515405Y-115110917D01*
X121560666Y-115530169D01*
X121560453Y-115642335D01*
X121557478Y-115676268D01*
X121539206Y-115884729D01*
G36*
X121539206Y-115884729D02*
G01*
X121469245Y-116046057D01*
X121327593Y-116191521D01*
X121134744Y-116328098D01*
X120891565Y-116387398D01*
X120651127Y-116293172D01*
X120387241Y-116041237D01*
X120229112Y-115829753D01*
X120101523Y-115520961D01*
X120101644Y-115182367D01*
X120110173Y-115153283D01*
X120460348Y-115153283D01*
X120510216Y-115500949D01*
X120725709Y-115827714D01*
X120758545Y-115862602D01*
X120900404Y-116000570D01*
X120979394Y-116056477D01*
X121021969Y-116040266D01*
X121083701Y-115906965D01*
X121105017Y-115676268D01*
X121089741Y-115393222D01*
X121041695Y-115102874D01*
X120964704Y-114850272D01*
X120862591Y-114680461D01*
X120681972Y-114499842D01*
X120547674Y-114821263D01*
X120460348Y-115153283D01*
X120110173Y-115153283D01*
X120223441Y-114767023D01*
X120272704Y-114647213D01*
X120436360Y-114370421D01*
X120632520Y-114232746D01*
X120888643Y-114211247D01*
X121020572Y-114252691D01*
X121227485Y-114437099D01*
X121398388Y-114734867D01*
X121515405Y-115110917D01*
X121560666Y-115530169D01*
X121560453Y-115642335D01*
X121557478Y-115676268D01*
X121539206Y-115884729D01*
G37*
X118816568Y-118138312D02*
X118765588Y-118417203D01*
X118654475Y-118609488D01*
X118478810Y-118681143D01*
X118317464Y-118619426D01*
X118152103Y-118469477D01*
X118083806Y-118385890D01*
X117961112Y-118275201D01*
X117899730Y-118314359D01*
X117882977Y-118505602D01*
X117854987Y-118681826D01*
X117734810Y-118787039D01*
X117652486Y-118800605D01*
X117534942Y-118795543D01*
X117531721Y-118790682D01*
X117516436Y-118671887D01*
X117503356Y-118414666D01*
X117493230Y-118044814D01*
X117486809Y-117588129D01*
X117485763Y-117313011D01*
X117984118Y-117313011D01*
X117996294Y-117696541D01*
X118091904Y-117969177D01*
X118209373Y-118108997D01*
X118320055Y-118173143D01*
X118354074Y-118151327D01*
X118382041Y-118012584D01*
X118369567Y-117787501D01*
X118323789Y-117524949D01*
X118251842Y-117273802D01*
X118160864Y-117082934D01*
X118009977Y-116860810D01*
X117984118Y-117313011D01*
X117485763Y-117313011D01*
X117484840Y-117070407D01*
X117486439Y-115370413D01*
X118009977Y-115421477D01*
X117980168Y-115952035D01*
X117974863Y-116048457D01*
X117968206Y-116299542D01*
X117993300Y-116439989D01*
X118066692Y-116515391D01*
X118204927Y-116571336D01*
X118324031Y-116635556D01*
X118507474Y-116837138D01*
X118652866Y-117122227D01*
X118755790Y-117456801D01*
X118811829Y-117806837D01*
X118814771Y-118012584D01*
X118816568Y-118138312D01*
G36*
X118816568Y-118138312D02*
G01*
X118765588Y-118417203D01*
X118654475Y-118609488D01*
X118478810Y-118681143D01*
X118317464Y-118619426D01*
X118152103Y-118469477D01*
X118083806Y-118385890D01*
X117961112Y-118275201D01*
X117899730Y-118314359D01*
X117882977Y-118505602D01*
X117854987Y-118681826D01*
X117734810Y-118787039D01*
X117652486Y-118800605D01*
X117534942Y-118795543D01*
X117531721Y-118790682D01*
X117516436Y-118671887D01*
X117503356Y-118414666D01*
X117493230Y-118044814D01*
X117486809Y-117588129D01*
X117485763Y-117313011D01*
X117984118Y-117313011D01*
X117996294Y-117696541D01*
X118091904Y-117969177D01*
X118209373Y-118108997D01*
X118320055Y-118173143D01*
X118354074Y-118151327D01*
X118382041Y-118012584D01*
X118369567Y-117787501D01*
X118323789Y-117524949D01*
X118251842Y-117273802D01*
X118160864Y-117082934D01*
X118009977Y-116860810D01*
X117984118Y-117313011D01*
X117485763Y-117313011D01*
X117484840Y-117070407D01*
X117486439Y-115370413D01*
X118009977Y-115421477D01*
X117980168Y-115952035D01*
X117974863Y-116048457D01*
X117968206Y-116299542D01*
X117993300Y-116439989D01*
X118066692Y-116515391D01*
X118204927Y-116571336D01*
X118324031Y-116635556D01*
X118507474Y-116837138D01*
X118652866Y-117122227D01*
X118755790Y-117456801D01*
X118811829Y-117806837D01*
X118814771Y-118012584D01*
X118816568Y-118138312D01*
G37*
X122435012Y-117447623D02*
X122445409Y-117466665D01*
X122468811Y-117622722D01*
X122478315Y-117892370D01*
X122475661Y-118235193D01*
X122462589Y-118610774D01*
X122440841Y-118978696D01*
X122412156Y-119298543D01*
X122378274Y-119529899D01*
X122340937Y-119632347D01*
X122265423Y-119674541D01*
X122127958Y-119689328D01*
X122053825Y-119564991D01*
X122031643Y-119288892D01*
X122027523Y-119178443D01*
X121978580Y-118813316D01*
X121892125Y-118471178D01*
X121863369Y-118388501D01*
X121783854Y-118197723D01*
X121721392Y-118140634D01*
X121656031Y-118193790D01*
X121648564Y-118205362D01*
X121586091Y-118369452D01*
X121515778Y-118641318D01*
X121451467Y-118968540D01*
X121443091Y-119016647D01*
X121372143Y-119338454D01*
X121291082Y-119596557D01*
X121215847Y-119738845D01*
X121141925Y-119804501D01*
X120977491Y-119875469D01*
X120880689Y-119801080D01*
X120874599Y-119591310D01*
X120878565Y-119567834D01*
X120916203Y-119330899D01*
X120966363Y-118999893D01*
X121019321Y-118638810D01*
X121020844Y-118628243D01*
X121083925Y-118198196D01*
X121132741Y-117906039D01*
X121176559Y-117722603D01*
X121224648Y-117618720D01*
X121286276Y-117565221D01*
X121370713Y-117532937D01*
X121413748Y-117521755D01*
X121577132Y-117545384D01*
X121751516Y-117701349D01*
X121946977Y-117928586D01*
X121946977Y-117713811D01*
X121992772Y-117537097D01*
X122162586Y-117444921D01*
X122318955Y-117423430D01*
X122435012Y-117447623D01*
G36*
X122435012Y-117447623D02*
G01*
X122445409Y-117466665D01*
X122468811Y-117622722D01*
X122478315Y-117892370D01*
X122475661Y-118235193D01*
X122462589Y-118610774D01*
X122440841Y-118978696D01*
X122412156Y-119298543D01*
X122378274Y-119529899D01*
X122340937Y-119632347D01*
X122265423Y-119674541D01*
X122127958Y-119689328D01*
X122053825Y-119564991D01*
X122031643Y-119288892D01*
X122027523Y-119178443D01*
X121978580Y-118813316D01*
X121892125Y-118471178D01*
X121863369Y-118388501D01*
X121783854Y-118197723D01*
X121721392Y-118140634D01*
X121656031Y-118193790D01*
X121648564Y-118205362D01*
X121586091Y-118369452D01*
X121515778Y-118641318D01*
X121451467Y-118968540D01*
X121443091Y-119016647D01*
X121372143Y-119338454D01*
X121291082Y-119596557D01*
X121215847Y-119738845D01*
X121141925Y-119804501D01*
X120977491Y-119875469D01*
X120880689Y-119801080D01*
X120874599Y-119591310D01*
X120878565Y-119567834D01*
X120916203Y-119330899D01*
X120966363Y-118999893D01*
X121019321Y-118638810D01*
X121020844Y-118628243D01*
X121083925Y-118198196D01*
X121132741Y-117906039D01*
X121176559Y-117722603D01*
X121224648Y-117618720D01*
X121286276Y-117565221D01*
X121370713Y-117532937D01*
X121413748Y-117521755D01*
X121577132Y-117545384D01*
X121751516Y-117701349D01*
X121946977Y-117928586D01*
X121946977Y-117713811D01*
X121992772Y-117537097D01*
X122162586Y-117444921D01*
X122318955Y-117423430D01*
X122435012Y-117447623D01*
G37*
X117228001Y-117251754D02*
X117176725Y-117623977D01*
X117071273Y-117785159D01*
X116888786Y-117939224D01*
X116887192Y-117940210D01*
X116689158Y-118042443D01*
X116539729Y-118086224D01*
X116537690Y-118086224D01*
X116410328Y-118023414D01*
X116233030Y-117870279D01*
X116050742Y-117674887D01*
X115908409Y-117485306D01*
X115850977Y-117349607D01*
X115870634Y-117254060D01*
X115975533Y-117189502D01*
X116138513Y-117240442D01*
X116322540Y-117402710D01*
X116448243Y-117535900D01*
X116623816Y-117650383D01*
X116740182Y-117624488D01*
X116782310Y-117456455D01*
X116753124Y-117317129D01*
X116591810Y-117149777D01*
X116423436Y-117047292D01*
X116180320Y-116842207D01*
X116003783Y-116624866D01*
X115935643Y-116440475D01*
X115945679Y-116390422D01*
X116358977Y-116390422D01*
X116364572Y-116432097D01*
X116426366Y-116578498D01*
X116530905Y-116741226D01*
X116646054Y-116879703D01*
X116739676Y-116953351D01*
X116779635Y-116921590D01*
X116776410Y-116872680D01*
X116724967Y-116681510D01*
X116633622Y-116469159D01*
X116531560Y-116296851D01*
X116447964Y-116225810D01*
X116397174Y-116255456D01*
X116358977Y-116390422D01*
X115945679Y-116390422D01*
X115967730Y-116280453D01*
X116070688Y-116070684D01*
X116120487Y-116007607D01*
X116274568Y-115912322D01*
X116515188Y-115903679D01*
X116607364Y-115913765D01*
X116768992Y-115965120D01*
X116890542Y-116089296D01*
X117022750Y-116328789D01*
X117056224Y-116400790D01*
X117184899Y-116819336D01*
X117195092Y-116921590D01*
X117228001Y-117251754D01*
G36*
X117228001Y-117251754D02*
G01*
X117176725Y-117623977D01*
X117071273Y-117785159D01*
X116888786Y-117939224D01*
X116887192Y-117940210D01*
X116689158Y-118042443D01*
X116539729Y-118086224D01*
X116537690Y-118086224D01*
X116410328Y-118023414D01*
X116233030Y-117870279D01*
X116050742Y-117674887D01*
X115908409Y-117485306D01*
X115850977Y-117349607D01*
X115870634Y-117254060D01*
X115975533Y-117189502D01*
X116138513Y-117240442D01*
X116322540Y-117402710D01*
X116448243Y-117535900D01*
X116623816Y-117650383D01*
X116740182Y-117624488D01*
X116782310Y-117456455D01*
X116753124Y-117317129D01*
X116591810Y-117149777D01*
X116423436Y-117047292D01*
X116180320Y-116842207D01*
X116003783Y-116624866D01*
X115935643Y-116440475D01*
X115945679Y-116390422D01*
X116358977Y-116390422D01*
X116364572Y-116432097D01*
X116426366Y-116578498D01*
X116530905Y-116741226D01*
X116646054Y-116879703D01*
X116739676Y-116953351D01*
X116779635Y-116921590D01*
X116776410Y-116872680D01*
X116724967Y-116681510D01*
X116633622Y-116469159D01*
X116531560Y-116296851D01*
X116447964Y-116225810D01*
X116397174Y-116255456D01*
X116358977Y-116390422D01*
X115945679Y-116390422D01*
X115967730Y-116280453D01*
X116070688Y-116070684D01*
X116120487Y-116007607D01*
X116274568Y-115912322D01*
X116515188Y-115903679D01*
X116607364Y-115913765D01*
X116768992Y-115965120D01*
X116890542Y-116089296D01*
X117022750Y-116328789D01*
X117056224Y-116400790D01*
X117184899Y-116819336D01*
X117195092Y-116921590D01*
X117228001Y-117251754D01*
G37*
X124225024Y-114627749D02*
X124271430Y-114672309D01*
X124297972Y-114778895D01*
X124308701Y-114974323D01*
X124307671Y-115285412D01*
X124298934Y-115738977D01*
X124287977Y-116192681D01*
X124274325Y-116505750D01*
X124253162Y-116704245D01*
X124219646Y-116815576D01*
X124168935Y-116867150D01*
X124096183Y-116886375D01*
X124069505Y-116889575D01*
X123984740Y-116877046D01*
X123930351Y-116797652D01*
X123892406Y-116617366D01*
X123856970Y-116302159D01*
X123807736Y-115964676D01*
X123730892Y-115662540D01*
X123640390Y-115448154D01*
X123547742Y-115348282D01*
X123464460Y-115389687D01*
X123453934Y-115412447D01*
X123408027Y-115581988D01*
X123353532Y-115858379D01*
X123300090Y-116194421D01*
X123270624Y-116388409D01*
X123208855Y-116691263D01*
X123141726Y-116863394D01*
X123060725Y-116931004D01*
X122987617Y-116949574D01*
X122857143Y-116977988D01*
X122846598Y-116969965D01*
X122819203Y-116847491D01*
X122799699Y-116607700D01*
X122791761Y-116289310D01*
X122788466Y-116057057D01*
X122766333Y-115746101D01*
X122716907Y-115536838D01*
X122632604Y-115386223D01*
X122531309Y-115263295D01*
X122470285Y-115242755D01*
X122429005Y-115343889D01*
X122416220Y-115394197D01*
X122371687Y-115615888D01*
X122327387Y-115887143D01*
X122326574Y-115892740D01*
X122267463Y-116287993D01*
X122222322Y-116547850D01*
X122183138Y-116704422D01*
X122141898Y-116789822D01*
X122090592Y-116836163D01*
X121985401Y-116895594D01*
X121882246Y-116915271D01*
X121819452Y-116846369D01*
X121791052Y-116668899D01*
X121791078Y-116362875D01*
X121813562Y-115908310D01*
X121835635Y-115580236D01*
X121876858Y-115197651D01*
X121936135Y-114943398D01*
X122024084Y-114792595D01*
X122151325Y-114720359D01*
X122328478Y-114701810D01*
X122338066Y-114702011D01*
X122506813Y-114782835D01*
X122664323Y-115019310D01*
X122719019Y-115129410D01*
X122793552Y-115255368D01*
X122835979Y-115249484D01*
X122874142Y-115125903D01*
X122953334Y-114976474D01*
X123166386Y-114831131D01*
X123329315Y-114792109D01*
X123458855Y-114837958D01*
X123611009Y-114999705D01*
X123817166Y-115252143D01*
X123759612Y-115010222D01*
X123752339Y-114800547D01*
X123871013Y-114663790D01*
X124129601Y-114618440D01*
X124154700Y-114618397D01*
X124225024Y-114627749D01*
G36*
X124225024Y-114627749D02*
G01*
X124271430Y-114672309D01*
X124297972Y-114778895D01*
X124308701Y-114974323D01*
X124307671Y-115285412D01*
X124298934Y-115738977D01*
X124287977Y-116192681D01*
X124274325Y-116505750D01*
X124253162Y-116704245D01*
X124219646Y-116815576D01*
X124168935Y-116867150D01*
X124096183Y-116886375D01*
X124069505Y-116889575D01*
X123984740Y-116877046D01*
X123930351Y-116797652D01*
X123892406Y-116617366D01*
X123856970Y-116302159D01*
X123807736Y-115964676D01*
X123730892Y-115662540D01*
X123640390Y-115448154D01*
X123547742Y-115348282D01*
X123464460Y-115389687D01*
X123453934Y-115412447D01*
X123408027Y-115581988D01*
X123353532Y-115858379D01*
X123300090Y-116194421D01*
X123270624Y-116388409D01*
X123208855Y-116691263D01*
X123141726Y-116863394D01*
X123060725Y-116931004D01*
X122987617Y-116949574D01*
X122857143Y-116977988D01*
X122846598Y-116969965D01*
X122819203Y-116847491D01*
X122799699Y-116607700D01*
X122791761Y-116289310D01*
X122788466Y-116057057D01*
X122766333Y-115746101D01*
X122716907Y-115536838D01*
X122632604Y-115386223D01*
X122531309Y-115263295D01*
X122470285Y-115242755D01*
X122429005Y-115343889D01*
X122416220Y-115394197D01*
X122371687Y-115615888D01*
X122327387Y-115887143D01*
X122326574Y-115892740D01*
X122267463Y-116287993D01*
X122222322Y-116547850D01*
X122183138Y-116704422D01*
X122141898Y-116789822D01*
X122090592Y-116836163D01*
X121985401Y-116895594D01*
X121882246Y-116915271D01*
X121819452Y-116846369D01*
X121791052Y-116668899D01*
X121791078Y-116362875D01*
X121813562Y-115908310D01*
X121835635Y-115580236D01*
X121876858Y-115197651D01*
X121936135Y-114943398D01*
X122024084Y-114792595D01*
X122151325Y-114720359D01*
X122328478Y-114701810D01*
X122338066Y-114702011D01*
X122506813Y-114782835D01*
X122664323Y-115019310D01*
X122719019Y-115129410D01*
X122793552Y-115255368D01*
X122835979Y-115249484D01*
X122874142Y-115125903D01*
X122953334Y-114976474D01*
X123166386Y-114831131D01*
X123329315Y-114792109D01*
X123458855Y-114837958D01*
X123611009Y-114999705D01*
X123817166Y-115252143D01*
X123759612Y-115010222D01*
X123752339Y-114800547D01*
X123871013Y-114663790D01*
X124129601Y-114618440D01*
X124154700Y-114618397D01*
X124225024Y-114627749D01*
G37*
X118535167Y-113255691D02*
X118065953Y-113353099D01*
X117872442Y-113396680D01*
X117618460Y-113464940D01*
X117464691Y-113520711D01*
X117327809Y-113576552D01*
X117105731Y-113638489D01*
X116931739Y-113698141D01*
X116751945Y-113812937D01*
X116665787Y-113886285D01*
X116555524Y-113940110D01*
X116511321Y-113950175D01*
X116341934Y-114057455D01*
X116120060Y-114254677D01*
X115879237Y-114507595D01*
X115653003Y-114781966D01*
X115474893Y-115043544D01*
X115287180Y-115391053D01*
X115158540Y-115727706D01*
X115093275Y-116085846D01*
X115071675Y-116538545D01*
X115087107Y-116879095D01*
X115242526Y-117590403D01*
X115565222Y-118317223D01*
X115695442Y-118540223D01*
X116094678Y-119084503D01*
X116580290Y-119548923D01*
X117193725Y-119975693D01*
X117449779Y-120125361D01*
X118399864Y-120574787D01*
X119383430Y-120887227D01*
X120382181Y-121064027D01*
X121377821Y-121106533D01*
X122352053Y-121016093D01*
X123286580Y-120794054D01*
X124163106Y-120441761D01*
X124963335Y-119960564D01*
X125668969Y-119351807D01*
X125816481Y-119186070D01*
X126175833Y-118624778D01*
X126417127Y-117983866D01*
X126532641Y-117301436D01*
X126514655Y-116615588D01*
X126355446Y-115964421D01*
X126206446Y-115612709D01*
X125921148Y-115072223D01*
X125594214Y-114567577D01*
X125264841Y-114163499D01*
X124913446Y-113834496D01*
X124286358Y-113363638D01*
X123555044Y-112920840D01*
X122757876Y-112528609D01*
X121933229Y-112209454D01*
X121411353Y-112051447D01*
X120514507Y-111848976D01*
X119628253Y-111730092D01*
X118779601Y-111695356D01*
X117995562Y-111745326D01*
X117303143Y-111880562D01*
X116729356Y-112101625D01*
X116464735Y-112239918D01*
X116425638Y-111968031D01*
X116418468Y-111910553D01*
X116398327Y-111622671D01*
X116393926Y-111315143D01*
X116396554Y-111217907D01*
X116418466Y-111030045D01*
X116481921Y-110950565D01*
X116612977Y-110934143D01*
X116761662Y-110914640D01*
X116885084Y-110849477D01*
X116888317Y-110845970D01*
X117008816Y-110812383D01*
X117262260Y-110787353D01*
X117615519Y-110770670D01*
X118035464Y-110762123D01*
X118488966Y-110761501D01*
X118942893Y-110768595D01*
X119364117Y-110783193D01*
X119719507Y-110805085D01*
X119975935Y-110834060D01*
X120100270Y-110869909D01*
X120182642Y-110918748D01*
X120287204Y-110914694D01*
X120332055Y-110901930D01*
X120426284Y-110978928D01*
X120487758Y-111053867D01*
X120506347Y-110988585D01*
X120528159Y-110928820D01*
X120648514Y-110927750D01*
X120659499Y-110931785D01*
X120847948Y-110982295D01*
X121093014Y-111029227D01*
X121184115Y-111045652D01*
X121505330Y-111125971D01*
X121878091Y-111243563D01*
X122271973Y-111385806D01*
X122656547Y-111540076D01*
X123001387Y-111693750D01*
X123276065Y-111834206D01*
X123450154Y-111948821D01*
X123493227Y-112024971D01*
X123487196Y-112061364D01*
X123573838Y-112055789D01*
X123597901Y-112051891D01*
X123758945Y-112096893D01*
X123999420Y-112217950D01*
X124278478Y-112390363D01*
X124555270Y-112589435D01*
X124788946Y-112790468D01*
X124834681Y-112834709D01*
X125035386Y-113024711D01*
X125257107Y-113230409D01*
X125298335Y-113268506D01*
X125589414Y-113559602D01*
X125775896Y-113790231D01*
X125841644Y-113940778D01*
X125844097Y-113960755D01*
X125926310Y-114024477D01*
X125949884Y-114028061D01*
X126010977Y-114114792D01*
X126014521Y-114136370D01*
X126083521Y-114280878D01*
X126212817Y-114474626D01*
X126236876Y-114507636D01*
X126383810Y-114745914D01*
X126476831Y-114955810D01*
X126537520Y-115113395D01*
X126643656Y-115294477D01*
X126713141Y-115411090D01*
X126811968Y-115721322D01*
X126883596Y-116136901D01*
X126926366Y-116618536D01*
X126938617Y-117126935D01*
X126918691Y-117622805D01*
X126864927Y-118066853D01*
X126775665Y-118419787D01*
X126579763Y-118879580D01*
X126120819Y-119632596D01*
X125532751Y-120291952D01*
X124829030Y-120847797D01*
X124023125Y-121290283D01*
X123128506Y-121609560D01*
X122158643Y-121795780D01*
X122031523Y-121809071D01*
X121264902Y-121838499D01*
X120477294Y-121793791D01*
X119757259Y-121679247D01*
X119440086Y-121594899D01*
X119051814Y-121470751D01*
X118649259Y-121326338D01*
X118276687Y-121178391D01*
X117978361Y-121043643D01*
X117798547Y-120938828D01*
X117677463Y-120860359D01*
X117446698Y-120730524D01*
X117166603Y-120584814D01*
X116710500Y-120304625D01*
X116153267Y-119812748D01*
X115653247Y-119197810D01*
X115234083Y-118485491D01*
X115130879Y-118271259D01*
X114973966Y-117925687D01*
X114854536Y-117637562D01*
X114792524Y-117453477D01*
X114743226Y-117238966D01*
X114694805Y-117030143D01*
X114692771Y-117021149D01*
X114663239Y-116746334D01*
X114661383Y-116371457D01*
X114683819Y-115960030D01*
X114727161Y-115575566D01*
X114788022Y-115281575D01*
X114871592Y-115034950D01*
X115042329Y-114633194D01*
X115231462Y-114279578D01*
X115409990Y-114032350D01*
X115549048Y-113884379D01*
X115876098Y-113543357D01*
X116129111Y-113295181D01*
X116336198Y-113114714D01*
X116525470Y-112976817D01*
X116725038Y-112856351D01*
X116776082Y-112829892D01*
X117712317Y-112829892D01*
X117732974Y-113023248D01*
X117877411Y-113174831D01*
X117981812Y-113226413D01*
X118067911Y-113255792D01*
X118149899Y-113227954D01*
X118331434Y-113088804D01*
X118420551Y-112900453D01*
X118414770Y-112708929D01*
X118311612Y-112560261D01*
X118108598Y-112500477D01*
X117971862Y-112523445D01*
X117797819Y-112646160D01*
X117712317Y-112829892D01*
X116776082Y-112829892D01*
X116962976Y-112733014D01*
X117612997Y-112470365D01*
X118287934Y-112287431D01*
X118565890Y-112231796D01*
X118550529Y-112743744D01*
X118545826Y-112900453D01*
X118535167Y-113255691D01*
G36*
X118535167Y-113255691D02*
G01*
X118065953Y-113353099D01*
X117872442Y-113396680D01*
X117618460Y-113464940D01*
X117464691Y-113520711D01*
X117327809Y-113576552D01*
X117105731Y-113638489D01*
X116931739Y-113698141D01*
X116751945Y-113812937D01*
X116665787Y-113886285D01*
X116555524Y-113940110D01*
X116511321Y-113950175D01*
X116341934Y-114057455D01*
X116120060Y-114254677D01*
X115879237Y-114507595D01*
X115653003Y-114781966D01*
X115474893Y-115043544D01*
X115287180Y-115391053D01*
X115158540Y-115727706D01*
X115093275Y-116085846D01*
X115071675Y-116538545D01*
X115087107Y-116879095D01*
X115242526Y-117590403D01*
X115565222Y-118317223D01*
X115695442Y-118540223D01*
X116094678Y-119084503D01*
X116580290Y-119548923D01*
X117193725Y-119975693D01*
X117449779Y-120125361D01*
X118399864Y-120574787D01*
X119383430Y-120887227D01*
X120382181Y-121064027D01*
X121377821Y-121106533D01*
X122352053Y-121016093D01*
X123286580Y-120794054D01*
X124163106Y-120441761D01*
X124963335Y-119960564D01*
X125668969Y-119351807D01*
X125816481Y-119186070D01*
X126175833Y-118624778D01*
X126417127Y-117983866D01*
X126532641Y-117301436D01*
X126514655Y-116615588D01*
X126355446Y-115964421D01*
X126206446Y-115612709D01*
X125921148Y-115072223D01*
X125594214Y-114567577D01*
X125264841Y-114163499D01*
X124913446Y-113834496D01*
X124286358Y-113363638D01*
X123555044Y-112920840D01*
X122757876Y-112528609D01*
X121933229Y-112209454D01*
X121411353Y-112051447D01*
X120514507Y-111848976D01*
X119628253Y-111730092D01*
X118779601Y-111695356D01*
X117995562Y-111745326D01*
X117303143Y-111880562D01*
X116729356Y-112101625D01*
X116464735Y-112239918D01*
X116425638Y-111968031D01*
X116418468Y-111910553D01*
X116398327Y-111622671D01*
X116393926Y-111315143D01*
X116396554Y-111217907D01*
X116418466Y-111030045D01*
X116481921Y-110950565D01*
X116612977Y-110934143D01*
X116761662Y-110914640D01*
X116885084Y-110849477D01*
X116888317Y-110845970D01*
X117008816Y-110812383D01*
X117262260Y-110787353D01*
X117615519Y-110770670D01*
X118035464Y-110762123D01*
X118488966Y-110761501D01*
X118942893Y-110768595D01*
X119364117Y-110783193D01*
X119719507Y-110805085D01*
X119975935Y-110834060D01*
X120100270Y-110869909D01*
X120182642Y-110918748D01*
X120287204Y-110914694D01*
X120332055Y-110901930D01*
X120426284Y-110978928D01*
X120487758Y-111053867D01*
X120506347Y-110988585D01*
X120528159Y-110928820D01*
X120648514Y-110927750D01*
X120659499Y-110931785D01*
X120847948Y-110982295D01*
X121093014Y-111029227D01*
X121184115Y-111045652D01*
X121505330Y-111125971D01*
X121878091Y-111243563D01*
X122271973Y-111385806D01*
X122656547Y-111540076D01*
X123001387Y-111693750D01*
X123276065Y-111834206D01*
X123450154Y-111948821D01*
X123493227Y-112024971D01*
X123487196Y-112061364D01*
X123573838Y-112055789D01*
X123597901Y-112051891D01*
X123758945Y-112096893D01*
X123999420Y-112217950D01*
X124278478Y-112390363D01*
X124555270Y-112589435D01*
X124788946Y-112790468D01*
X124834681Y-112834709D01*
X125035386Y-113024711D01*
X125257107Y-113230409D01*
X125298335Y-113268506D01*
X125589414Y-113559602D01*
X125775896Y-113790231D01*
X125841644Y-113940778D01*
X125844097Y-113960755D01*
X125926310Y-114024477D01*
X125949884Y-114028061D01*
X126010977Y-114114792D01*
X126014521Y-114136370D01*
X126083521Y-114280878D01*
X126212817Y-114474626D01*
X126236876Y-114507636D01*
X126383810Y-114745914D01*
X126476831Y-114955810D01*
X126537520Y-115113395D01*
X126643656Y-115294477D01*
X126713141Y-115411090D01*
X126811968Y-115721322D01*
X126883596Y-116136901D01*
X126926366Y-116618536D01*
X126938617Y-117126935D01*
X126918691Y-117622805D01*
X126864927Y-118066853D01*
X126775665Y-118419787D01*
X126579763Y-118879580D01*
X126120819Y-119632596D01*
X125532751Y-120291952D01*
X124829030Y-120847797D01*
X124023125Y-121290283D01*
X123128506Y-121609560D01*
X122158643Y-121795780D01*
X122031523Y-121809071D01*
X121264902Y-121838499D01*
X120477294Y-121793791D01*
X119757259Y-121679247D01*
X119440086Y-121594899D01*
X119051814Y-121470751D01*
X118649259Y-121326338D01*
X118276687Y-121178391D01*
X117978361Y-121043643D01*
X117798547Y-120938828D01*
X117677463Y-120860359D01*
X117446698Y-120730524D01*
X117166603Y-120584814D01*
X116710500Y-120304625D01*
X116153267Y-119812748D01*
X115653247Y-119197810D01*
X115234083Y-118485491D01*
X115130879Y-118271259D01*
X114973966Y-117925687D01*
X114854536Y-117637562D01*
X114792524Y-117453477D01*
X114743226Y-117238966D01*
X114694805Y-117030143D01*
X114692771Y-117021149D01*
X114663239Y-116746334D01*
X114661383Y-116371457D01*
X114683819Y-115960030D01*
X114727161Y-115575566D01*
X114788022Y-115281575D01*
X114871592Y-115034950D01*
X115042329Y-114633194D01*
X115231462Y-114279578D01*
X115409990Y-114032350D01*
X115549048Y-113884379D01*
X115876098Y-113543357D01*
X116129111Y-113295181D01*
X116336198Y-113114714D01*
X116525470Y-112976817D01*
X116725038Y-112856351D01*
X116776082Y-112829892D01*
X117712317Y-112829892D01*
X117732974Y-113023248D01*
X117877411Y-113174831D01*
X117981812Y-113226413D01*
X118067911Y-113255792D01*
X118149899Y-113227954D01*
X118331434Y-113088804D01*
X118420551Y-112900453D01*
X118414770Y-112708929D01*
X118311612Y-112560261D01*
X118108598Y-112500477D01*
X117971862Y-112523445D01*
X117797819Y-112646160D01*
X117712317Y-112829892D01*
X116776082Y-112829892D01*
X116962976Y-112733014D01*
X117612997Y-112470365D01*
X118287934Y-112287431D01*
X118565890Y-112231796D01*
X118550529Y-112743744D01*
X118545826Y-112900453D01*
X118535167Y-113255691D01*
G37*
D13*
%TO.C,R6*%
X97665000Y-125160436D02*
X97665000Y-125614564D01*
X99135000Y-125160436D02*
X99135000Y-125614564D01*
%TO.C,Q3*%
X118240000Y-104125000D02*
X118240000Y-103475000D01*
X118240000Y-104125000D02*
X118240000Y-104775000D01*
X121360000Y-104125000D02*
X121360000Y-103475000D01*
X121360000Y-104125000D02*
X121360000Y-104775000D01*
X121640000Y-105527500D02*
X121310000Y-105287500D01*
X121640000Y-105047500D01*
X121640000Y-105527500D01*
G36*
X121640000Y-105527500D02*
G01*
X121310000Y-105287500D01*
X121640000Y-105047500D01*
X121640000Y-105527500D01*
G37*
%TO.C,Q4*%
X106545000Y-104040000D02*
X106545000Y-103390000D01*
X106545000Y-104040000D02*
X106545000Y-104690000D01*
X109665000Y-104040000D02*
X109665000Y-103390000D01*
X109665000Y-104040000D02*
X109665000Y-104690000D01*
X109945000Y-105442500D02*
X109615000Y-105202500D01*
X109945000Y-104962500D01*
X109945000Y-105442500D01*
G36*
X109945000Y-105442500D02*
G01*
X109615000Y-105202500D01*
X109945000Y-104962500D01*
X109945000Y-105442500D01*
G37*
%TO.C,R7*%
X94715000Y-125160436D02*
X94715000Y-125614564D01*
X96185000Y-125160436D02*
X96185000Y-125614564D01*
%TO.C,R19*%
X114189564Y-100477500D02*
X113735436Y-100477500D01*
X114189564Y-101947500D02*
X113735436Y-101947500D01*
%TO.C,R15*%
X73420000Y-106164564D02*
X73420000Y-105710436D01*
X74890000Y-106164564D02*
X74890000Y-105710436D01*
%TD*%
M02*
