%TF.GenerationSoftware,KiCad,Pcbnew,9.0.2-9.0.2-0~ubuntu24.10.1*%
%TF.CreationDate,2025-07-06T18:08:21+02:00*%
%TF.ProjectId,pet_joymate,7065745f-6a6f-4796-9d61-74652e6b6963,rev?*%
%TF.SameCoordinates,Original*%
%TF.FileFunction,Paste,Bot*%
%TF.FilePolarity,Positive*%
%FSLAX46Y46*%
G04 Gerber Fmt 4.6, Leading zero omitted, Abs format (unit mm)*
G04 Created by KiCad (PCBNEW 9.0.2-9.0.2-0~ubuntu24.10.1) date 2025-07-06 18:08:21*
%MOMM*%
%LPD*%
G01*
G04 APERTURE LIST*
G04 Aperture macros list*
%AMRoundRect*
0 Rectangle with rounded corners*
0 $1 Rounding radius*
0 $2 $3 $4 $5 $6 $7 $8 $9 X,Y pos of 4 corners*
0 Add a 4 corners polygon primitive as box body*
4,1,4,$2,$3,$4,$5,$6,$7,$8,$9,$2,$3,0*
0 Add four circle primitives for the rounded corners*
1,1,$1+$1,$2,$3*
1,1,$1+$1,$4,$5*
1,1,$1+$1,$6,$7*
1,1,$1+$1,$8,$9*
0 Add four rect primitives between the rounded corners*
20,1,$1+$1,$2,$3,$4,$5,0*
20,1,$1+$1,$4,$5,$6,$7,0*
20,1,$1+$1,$6,$7,$8,$9,0*
20,1,$1+$1,$8,$9,$2,$3,0*%
G04 Aperture macros list end*
%ADD10R,2.200000X6.000000*%
%ADD11RoundRect,0.150000X0.150000X-0.587500X0.150000X0.587500X-0.150000X0.587500X-0.150000X-0.587500X0*%
%ADD12RoundRect,0.250000X-0.262500X-0.450000X0.262500X-0.450000X0.262500X0.450000X-0.262500X0.450000X0*%
%ADD13RoundRect,0.250000X0.262500X0.450000X-0.262500X0.450000X-0.262500X-0.450000X0.262500X-0.450000X0*%
%ADD14RoundRect,0.250000X0.450000X-0.262500X0.450000X0.262500X-0.450000X0.262500X-0.450000X-0.262500X0*%
%ADD15RoundRect,0.250000X-0.450000X0.262500X-0.450000X-0.262500X0.450000X-0.262500X0.450000X0.262500X0*%
G04 APERTURE END LIST*
D10*
%TO.C,U3*%
X123985000Y-131500000D03*
X120025000Y-131500000D03*
X116065000Y-131500000D03*
X112105000Y-131500000D03*
X108145000Y-131500000D03*
X104185000Y-131500000D03*
X100225000Y-131500000D03*
X96265000Y-131500000D03*
X92305000Y-131500000D03*
X88345000Y-131500000D03*
X84385000Y-131500000D03*
X80425000Y-131500000D03*
%TD*%
D11*
%TO.C,Q7*%
X103145000Y-105055000D03*
X101245000Y-105055000D03*
X102195000Y-103180000D03*
%TD*%
D12*
%TO.C,R13*%
X95425000Y-101087500D03*
X97250000Y-101087500D03*
%TD*%
D13*
%TO.C,R9*%
X120750000Y-101137500D03*
X118925000Y-101137500D03*
%TD*%
%TO.C,R11*%
X109020000Y-101047500D03*
X107195000Y-101047500D03*
%TD*%
D11*
%TO.C,Q5*%
X97275000Y-105062500D03*
X95375000Y-105062500D03*
X96325000Y-103187500D03*
%TD*%
D14*
%TO.C,R14*%
X99255000Y-106737500D03*
X99255000Y-104912500D03*
%TD*%
D11*
%TO.C,Q6*%
X114875000Y-105137500D03*
X112975000Y-105137500D03*
X113925000Y-103262500D03*
%TD*%
D14*
%TO.C,R12*%
X110935000Y-106707500D03*
X110935000Y-104882500D03*
%TD*%
D15*
%TO.C,R8*%
X92850000Y-124550000D03*
X92850000Y-126375000D03*
%TD*%
D13*
%TO.C,R21*%
X103147500Y-101087500D03*
X101322500Y-101087500D03*
%TD*%
D15*
%TO.C,R5*%
X101350000Y-124475000D03*
X101350000Y-126300000D03*
%TD*%
D14*
%TO.C,R10*%
X122725000Y-106500000D03*
X122725000Y-104675000D03*
%TD*%
D15*
%TO.C,R4*%
X104300000Y-124475000D03*
X104300000Y-126300000D03*
%TD*%
D14*
%TO.C,R20*%
X116800000Y-106612500D03*
X116800000Y-104787500D03*
%TD*%
%TO.C,R1*%
X74175000Y-110375000D03*
X74175000Y-108550000D03*
%TD*%
D15*
%TO.C,R3*%
X107250000Y-124475000D03*
X107250000Y-126300000D03*
%TD*%
%TO.C,R2*%
X110200000Y-124475000D03*
X110200000Y-126300000D03*
%TD*%
D14*
%TO.C,R22*%
X105185000Y-106747500D03*
X105185000Y-104922500D03*
%TD*%
D15*
%TO.C,R6*%
X98400000Y-124475000D03*
X98400000Y-126300000D03*
%TD*%
D11*
%TO.C,Q3*%
X120750000Y-105062500D03*
X118850000Y-105062500D03*
X119800000Y-103187500D03*
%TD*%
%TO.C,Q4*%
X109055000Y-104977500D03*
X107155000Y-104977500D03*
X108105000Y-103102500D03*
%TD*%
D15*
%TO.C,R7*%
X95450000Y-124475000D03*
X95450000Y-126300000D03*
%TD*%
D13*
%TO.C,R19*%
X114875000Y-101212500D03*
X113050000Y-101212500D03*
%TD*%
D14*
%TO.C,R15*%
X74155000Y-106850000D03*
X74155000Y-105025000D03*
%TD*%
M02*
